<?xml version="1.0" standalone="no"?>
<!DOCTYPE svg PUBLIC "-//W3C//DTD SVG 1.1//EN" "http://www.w3.org/Graphics/SVG/1.1/DTD/svg11.dtd" >
<svg xmlns="http://www.w3.org/2000/svg" xmlns:xlink="http://www.w3.org/1999/xlink" version="1.1">
<metadata>
Created by FontForge 20161013 at Fri Dec 13 16:53:11 2013
 By ,,,
Copyright 2013 Adobe Systems Incorporated. All rights reserved.
</metadata>
<defs>
<font id="NautilusPompilius" horiz-adv-x="387" >
  <font-face 
    font-family="Nautilus Pompilius"
    font-weight="400"
    font-stretch="normal"
    units-per-em="1000"
    panose-1="2 0 0 0 0 0 0 0 0 0"
    ascent="750"
    descent="-250"
    x-height="505"
    cap-height="780"
    bbox="-343 -385 1071 888"
    underline-thickness="50"
    underline-position="-200"
    unicode-range="U+0020-20AC"
  />
<missing-glyph horiz-adv-x="678" 
d="M628 223q0 -29 -11 -29q-6 0 -14 4l-71 32q18 24 18 43q0 63 -157 63l-164 107q-31 20 -31 30q0 13 49 25.5t89 12.5q118 0 205 -88t87 -200zM215 18q-165 19 -165 204q0 98 58 175q19 25 30 25q5 0 9.5 -2.5t14.5 -8t17 -9.5l188 -101q0 -47 19.5 -92.5t57.5 -45.5
q29 0 62 37l71 -52q21 -16 21 -22q0 -7 -23 -27q-27 -21 -62 -37l11 -60q2 -14 -9 -26t-29 -15q-18 -4 -32 5t-16 24l-8 46l-20 -4l11 -78q2 -15 -9 -27.5t-29 -14.5t-32.5 6t-16.5 23l-10 79l-23 -2l6 -40q3 -14 -8.5 -27t-28.5 -16q-18 -3 -32 7t-16 25zM253 268l-48 57
l-20 -70l-70 -32l63 -38l7 -78l56 47l76 -16l-28 69l39 67z" />
    <glyph glyph-name="fi" unicode="fi" horiz-adv-x="494" 
d="M-40 0l95 442h-50q-4 25 7.5 41.5t34.5 16.5h20l8 36q22 105 84.5 156t149.5 51q62 0 104 -29.5t42 -77.5q0 -38 -19 -58t-52 -20q-36 0 -62 20q16 50 19 90q-27 8 -46 8q-39 0 -63.5 -35.5t-40.5 -110.5l-7 -30h187q60 0 48 -55l-60 -284q-16 -74 30 -74q26 0 55.5 15
t49.5 35q17 -8 17 -24q0 -11 -9 -22q-88 -99 -181 -99q-45 0 -73.5 28.5t-15.5 90.5l64 306q6 25 -21 25h-103l-95 -442q-46 -214 -97.5 -299.5t-152.5 -85.5q-49 0 -79.5 28.5t-30.5 88.5q0 27 33 27q12 -55 69 -55q48 0 76.5 65t64.5 231z" />
    <glyph glyph-name="fl" unicode="fl" horiz-adv-x="504" 
d="M-36 0l95 442h-50q-4 25 7.5 41.5t34.5 16.5h20l8 36q22 102 88 154.5t156 52.5q63 0 102 -42t22 -125l-92 -448q-8 -41 33 -41q27 0 57 15t50 35q17 -8 17 -24q0 -11 -9 -22q-90 -99 -183 -99q-115 0 -81 142l93 453q21 95 -44 95q-36 0 -56.5 -38.5t-36.5 -113.5
l-7 -30h77q4 -25 -7.5 -41.5t-34.5 -16.5h-47l-95 -442q-46 -214 -97.5 -299.5t-152.5 -85.5q-49 0 -79.5 28.5t-30.5 88.5q0 27 33 27q12 -55 69 -55q48 0 76.5 65t64.5 231z" />
    <glyph glyph-name="ft" unicode="ft" horiz-adv-x="497" 
d="M-36 0l95 442h-50q-4 25 7.5 41.5t34.5 16.5h20l8 36q22 102 88 154.5t156 52.5q63 0 103.5 -42t23.5 -125l-16 -76h73q4 -25 -7.5 -41.5t-34.5 -16.5h-44l-59 -281q-16 -74 30 -74q26 0 55.5 15t49.5 35q17 -8 17 -24q0 -11 -9 -22q-37 -42 -89.5 -70.5t-100.5 -28.5
q-109 0 -78 148l64 302h-125l-95 -442q-46 -214 -97.5 -299.5t-152.5 -85.5q-49 0 -79.5 28.5t-30.5 88.5q0 27 33 27q12 -55 69 -55q48 0 76.5 65t64.5 231zM195 530l-7 -30h125l18 82q22 100 -43 100q-36 0 -56.5 -38.5t-36.5 -113.5z" />
    <glyph glyph-name="fb" unicode="fb" horiz-adv-x="695" 
d="M223 442h-47l-95 -442q-46 -214 -97.5 -299.5t-152.5 -85.5q-49 0 -79.5 28.5t-30.5 88.5q0 27 33 27q12 -55 69 -55q48 0 76.5 65t64.5 231l95 442h-50q-4 25 7.5 41.5t34.5 16.5h20l8 36q22 102 88 154.5t156 52.5q63 0 102 -42t22 -125l-30 -149q66 78 137 78
q58 0 91.5 -42t33.5 -114q0 -83 -47 -166t-120.5 -136t-146.5 -53q-79 0 -105 77t2 192l70 324q21 95 -44 95q-36 0 -56.5 -38.5t-36.5 -113.5l-7 -30h77q4 -25 -7.5 -41.5t-34.5 -16.5zM553 327q0 51 -26.5 68t-62 1.5t-64.5 -52.5l-19 -87q-35 -160 37 -160q53 0 94 71
t41 159z" />
    <glyph glyph-name="fh" unicode="fh" horiz-adv-x="723" 
d="M-36 0l95 442h-50q-4 25 7.5 41.5t34.5 16.5h20l8 36q22 102 88 154.5t156 52.5q63 0 102 -42t22 -125l-34 -162q62 91 133 91q48 0 79.5 -34t14.5 -113l-49 -230q-8 -41 27 -41q26 0 55.5 15t49.5 35q17 -8 17 -24q0 -11 -9 -22q-88 -99 -181 -99q-108 0 -78 142l42 199
q7 24 3 41.5t-27 17.5q-48 0 -93 -53l-63 -284q-7 -32 -30.5 -47.5t-53.5 -15.5q-27 0 -42 10l124 585q21 95 -44 95q-36 0 -56.5 -38.5t-36.5 -113.5l-7 -30h73q4 -25 -7.5 -41.5t-34.5 -16.5h-43l-95 -442q-46 -214 -97.5 -299.5t-152.5 -85.5q-49 0 -79.5 28.5
t-30.5 88.5q0 27 33 27q12 -55 69 -55q48 0 76.5 65t64.5 231z" />
    <glyph glyph-name="fj" unicode="fj" horiz-adv-x="477" 
d="M-36 0l95 442h-50q-4 25 7.5 41.5t34.5 16.5h20l8 36q22 105 84.5 156t149.5 51q62 0 104 -29.5t42 -77.5q0 -38 -19 -58t-52 -20q-36 0 -62 20q16 50 19 90q-27 8 -46 8q-39 0 -63.5 -35.5t-40.5 -110.5l-7 -30h186q60 0 48 -55l-96 -445q-46 -214 -97.5 -299.5
t-152.5 -85.5q-82 0 -103 70q-53 -70 -142 -70q-49 0 -79.5 28.5t-30.5 88.5q0 27 33 27q12 -55 69 -55q48 0 76.5 65t64.5 231zM277 442h-101l-95 -442q-39 -180 -76 -259q17 -37 63 -37q48 0 77 66t64 230l89 417q6 25 -21 25z" />
    <glyph glyph-name="fk" unicode="fk" horiz-adv-x="674" 
d="M682 91q-30 -36 -74 -67.5t-73 -31.5q-23 0 -42 10t-33.5 32t-24 40t-18.5 52t-12 48t-9 46q0 2 -0.5 3.5l-1 3t-0.5 3.5l-23 -6l-36 -169q-7 -32 -30.5 -47.5t-53.5 -15.5q-27 0 -42 10l123 585q21 95 -44 95q-36 0 -56.5 -38.5t-36.5 -113.5l-7 -30h77
q4 -25 -7.5 -41.5t-34.5 -16.5h-47l-95 -442q-46 -214 -97.5 -299.5t-152.5 -85.5q-49 0 -79.5 28.5t-30.5 88.5q0 27 33 27q12 -55 69 -55q48 0 76.5 65t64.5 231l94 442h-49q-4 25 7.5 41.5t34.5 16.5h19l8 36q22 102 88.5 154.5t156.5 52.5q63 0 102 -42t22 -125
l-65 -300l20 5q97 29 97 116q0 47 -14 62q22 46 78 48q28 1 42 -17.5t14 -59.5q1 -56 -35.5 -100.5t-89.5 -69.5q40 -165 112 -165q22 0 68 42q17 -8 17 -24q0 -11 -9 -22z" />
    <glyph glyph-name="Th" unicode="Th" horiz-adv-x="914" 
d="M831 358l-49 -230q-8 -41 27 -41q26 0 55.5 15t49.5 35q17 -8 17 -24q0 -11 -9 -22q-88 -99 -181 -99q-108 0 -78 142l42 199q6 37 0.5 48t-24.5 11q-49 0 -92 -52l-64 -285q-7 -32 -30.5 -47.5t-53.5 -15.5q-27 0 -42 10l130 618q-12 1 -28 5.5t-26.5 8t-32.5 12
t-30 11.5l-128 -601q-14 -64 -86 -64q-35 0 -53 13l153 677h-8q-58 0 -103 -40t-45 -110q0 -29 14 -52q-64 -17 -95 9t-31 71q0 55 29.5 95t77 60t92.5 28.5t90 8.5q26 0 96 -6t98 -6q77 0 118 29q37 -46 22 -121l-49 -234q62 91 133 91q48 0 79.5 -34t14.5 -113z" />
    <glyph glyph-name="Tb" unicode="Tb" horiz-adv-x="885" 
d="M556 -8q-79 0 -105 78t2 193l76 357q-12 1 -28 5.5t-26.5 8t-32.5 12t-30 11.5l-128 -601q-14 -64 -86 -64q-35 0 -53 13l153 677h-8q-58 0 -103 -40t-45 -110q0 -29 14 -52q-64 -17 -95 9t-31 71q0 55 29.5 95t77 60t92.5 28.5t90 8.5q26 0 96 -6t98 -6q77 0 118 29
q37 -46 22 -121l-45 -221q66 78 137 78q58 0 91.5 -42t33.5 -114q0 -83 -47 -166.5t-120.5 -137t-146.5 -53.5zM744 327q0 51 -26.5 68t-62 1.5t-64.5 -52.5l-19 -87q-35 -162 37 -162q53 0 94 71.5t41 160.5z" />
    <glyph glyph-name="Tk" unicode="Tk" horiz-adv-x="865" 
d="M400 2l129 618q-12 1 -28 5.5t-26.5 8t-32.5 12t-30 11.5l-128 -601q-14 -64 -86 -64q-35 0 -53 13l153 677h-8q-58 0 -103 -40t-45 -110q0 -29 14 -52q-64 -17 -95 9t-31 71q0 55 29.5 95t77 60t92.5 28.5t90 8.5q26 0 96 -6t98 -6q77 0 118 29q37 -46 22 -121l-80 -372
l20 5q97 29 97 116q0 47 -14 62q22 46 78 48q28 1 42 -17.5t14 -59.5q1 -56 -35.5 -100.5t-89.5 -69.5q40 -165 112 -165q23 0 68 42q17 -8 17 -24q0 -11 -9 -22q-30 -36 -74 -67.5t-73 -31.5q-23 0 -42 10t-33.5 32t-24 40t-18.5 52t-12 48t-9 46q0 2 -0.5 3.5l-1 3
t-0.5 3.5l-23 -6l-36 -169q-7 -32 -30.5 -47.5t-53.5 -15.5q-27 0 -42 10z" />
    <glyph glyph-name="ti" unicode="ti" horiz-adv-x="528" 
d="M309 442h-134l-59 -281q-7 -38 -0.5 -55.5t22.5 -17.5q36 0 56 48q30 0 30 -27q0 -49 -45.5 -83t-92.5 -34q-21 0 -39.5 6.5t-36 23t-22 45t2.5 73.5l64 302h-50q-4 25 7.5 41.5t34.5 16.5h20l18 82q7 32 30.5 47.5t53.5 15.5q27 0 47 -13l-28 -132h217q60 0 48 -55
l-60 -284q-16 -74 30 -74q26 0 55.5 15t49.5 35q17 -8 17 -24q0 -11 -9 -22q-88 -99 -181 -99q-45 0 -73.5 28.5t-15.5 90.5l64 306q6 25 -21 25zM357 634q3 29 25 49.5t51 20.5t48 -20.5t16 -49.5q-5 -30 -27 -50t-51 -20q-30 0 -48 20.5t-14 49.5z" />
    <glyph glyph-name="ol" unicode="ol" horiz-adv-x="771" 
d="M798 155q-26 -67 -101 -115t-146 -48q-57 0 -88 36.5t-22 111.5q2 14 5.5 42.5t5.5 43.5q-30 0 -65 8q-25 -97 -100 -169.5t-152 -72.5q-73 0 -110 50.5t-37 126.5q0 77 31.5 154.5t92 131.5t132.5 54q81 0 120 -59q-1 -17 -11.5 -25t-22.5 -3q-30 11 -64 11
q-64 0 -107 -75.5t-43 -156.5q0 -62 18 -92t47 -30q45 0 83.5 58.5t29.5 131.5q-29 15 -49 27q-17 41 -0.5 73t58.5 32q41 0 67.5 -29t25.5 -76q0 -8 -2 -22q37 -8 65 -8q35 223 89 335.5t137 112.5q36 0 58 -21.5t22 -59.5q0 -94 -51 -201t-132 -163q-7 -39 -16 -108
q-5 -37 10.5 -54.5t43.5 -17.5q43 0 91.5 32t62.5 72q14 2 21.5 -10.5t2.5 -27.5zM692 648q-46 0 -102 -326q56 53 87.5 140t31.5 164q0 22 -17 22z" />
    <glyph glyph-name="Fi" unicode="Fi" horiz-adv-x="732" 
d="M136 546q0 -35 20 -58q-21 -10 -42 -10q-37 0 -59.5 27.5t-22.5 65.5q0 47 20 83.5t50 57.5t69 35t72.5 18.5t65.5 4.5q42 0 122 -9.5t143.5 -7.5t126.5 25q30 -76 -4 -128.5t-94 -52.5q-29 0 -62.5 13t-81.5 39t-70 36l-58 -270q10 -1 33.5 -4.5t35 -4t29 1.5t31.5 9
q19 -23 1 -52.5t-56 -29.5q-13 0 -27.5 2.5t-32.5 7.5t-27 7l-63 -296q-14 -64 -86 -64q-35 0 -53 13l159 704q-56 -6 -97.5 -48t-41.5 -115zM470 111l58 278q5 25 -10 25q-6 0 -20 -12q-11 7 -12.5 24.5t12.5 30.5q60 48 112 48q60 0 48 -55l-61 -289q-16 -74 30 -74
q26 0 55.5 15t49.5 35q17 -8 17 -24q0 -11 -9 -22q-88 -99 -181 -99q-45 0 -73.5 28.5t-15.5 90.5z" />
    <glyph glyph-name="Fj" unicode="Fj" horiz-adv-x="713" 
d="M136 546q0 -35 20 -58q-21 -10 -42 -10q-37 0 -59.5 27.5t-22.5 65.5q0 47 20 83.5t50 57.5t69 35t72.5 18.5t65.5 4.5q42 0 122 -9.5t143.5 -7.5t126.5 25q30 -76 -4 -128.5t-94 -52.5q-29 0 -62.5 13t-81.5 39t-70 36l-58 -270q10 -1 33.5 -4.5t35 -4t29 1.5t31.5 9
q19 -23 1 -52.5t-56 -29.5q-13 0 -27.5 2.5t-32.5 7.5t-27 7l-63 -296q-14 -64 -86 -64q-35 0 -53 13l159 704q-56 -6 -97.5 -48t-41.5 -115zM658 450l-76 -354q-6 -28 -9 -41q97 48 143 87q12 -10 12.5 -24t-11.5 -26q-50 -44 -157 -94q-16 -63 -32 -112t-41.5 -102.5
t-56 -88.5t-74 -57.5t-94.5 -22.5q-47 0 -84 32.5t-37 90.5q0 27 9 51t21 43t37.5 39.5t44.5 33.5t57.5 32.5t61.5 30t70 31.5q4 16 25 107l61 283q5 25 -10 25q-6 0 -20 -12q-11 7 -12.5 24.5t12.5 30.5q60 48 112 48q60 0 48 -55zM263 -296q50 0 88 55t73 175
q-105 -52 -153.5 -91.5t-48.5 -91.5q0 -23 14 -35t27 -12z" />
    <glyph glyph-name="tj" unicode="tj" horiz-adv-x="513" 
d="M264 106l67 311q6 25 -21 25h-135l-59 -281q-7 -38 -0.5 -55.5t22.5 -17.5q36 0 56 48q30 0 30 -27q0 -49 -45.5 -83t-92.5 -34q-21 0 -39.5 6.5t-36 23t-22 45t2.5 73.5l64 302h-50q-4 25 7.5 41.5t34.5 16.5h20l18 82q7 32 30.5 47.5t53.5 15.5q27 0 47 -13l-28 -132
h218q60 0 48 -55l-75 -349q-6 -28 -9 -41q97 48 143 87q12 -10 12.5 -24t-11.5 -26q-50 -44 -157 -94q-16 -63 -32 -112t-41.5 -102.5t-56 -88.5t-74 -57.5t-94.5 -22.5q-47 0 -84 32.5t-37 90.5q0 27 9 51t21 43t37.5 39.5t44.5 33.5t57.5 32.5t61.5 30t70 31.5
q4 16 25 107zM60 -296q50 0 88 55t73 175q-105 -52 -153.5 -91.5t-48.5 -91.5q0 -23 14 -35t27 -12zM358 634q3 29 25 49.5t51 20.5t48 -20.5t16 -49.5q-5 -30 -27 -50t-51 -20q-30 0 -48 20.5t-14 49.5z" />
    <glyph glyph-name="tm" unicode="tm" horiz-adv-x="993" 
d="M242 5l88 412q6 25 -21 25h-134l-59 -281q-7 -38 -0.5 -55.5t22.5 -17.5q36 0 56 48q30 0 30 -27q0 -49 -45.5 -83t-92.5 -34q-21 0 -39.5 6.5t-36 23t-22 45t2.5 73.5l64 302h-50q-4 25 7.5 41.5t34.5 16.5h20l18 82q7 32 30.5 47.5t53.5 15.5q27 0 47 -13l-28 -132h217
q60 0 48 -55l-9 -40q69 100 148 100q35 0 60.5 -27t23.5 -76q72 103 150 103q43 0 72 -34.5t12 -112.5l-49 -230q-8 -41 27 -41q26 0 55.5 15t49.5 35q17 -8 17 -24q0 -11 -9 -22q-88 -99 -181 -99q-108 0 -78 142l42 199q7 24 3 41.5t-27 17.5q-44 0 -87 -46l-62 -291
q-7 -32 -30.5 -47.5t-53.5 -15.5q-27 0 -47 13l70 328q7 24 3 41.5t-27 17.5q-48 0 -92 -52l-61 -285q-7 -32 -30.5 -47.5t-53.5 -15.5q-27 0 -47 13z" />
    <glyph glyph-name="tn" unicode="tn" horiz-adv-x="759" 
d="M242 5l88 412q6 25 -21 25h-134l-59 -281q-7 -38 -0.5 -55.5t22.5 -17.5q36 0 56 48q30 0 30 -27q0 -49 -45.5 -83t-92.5 -34q-21 0 -39.5 6.5t-36 23t-22 45t2.5 73.5l64 302h-50q-4 25 7.5 41.5t34.5 16.5h20l18 82q7 32 30.5 47.5t53.5 15.5q27 0 47 -13l-28 -132h217
q61 0 48 -55l-9 -40q32 45 76.5 72.5t87.5 27.5t63.5 -36.5t4.5 -110.5l-49 -230q-8 -41 27 -41q26 0 55.5 15t49.5 35q17 -8 17 -24q0 -11 -9 -22q-88 -99 -181 -99q-108 0 -78 142l42 199q13 59 -27 59q-20 0 -46 -15.5t-43 -36.5l-61 -285q-7 -32 -30.5 -47.5
t-53.5 -15.5q-27 0 -47 13z" />
    <glyph glyph-name="tp" unicode="tp" horiz-adv-x="744" 
d="M166 -364l164 781q6 25 -21 25h-134l-59 -281q-7 -38 -0.5 -55.5t22.5 -17.5q36 0 56 48q30 0 30 -27q0 -49 -45.5 -83t-92.5 -34q-21 0 -39.5 6.5t-36 23t-22 45t2.5 73.5l64 302h-50q-4 25 7.5 41.5t34.5 16.5h20l18 82q7 32 30.5 47.5t53.5 15.5q27 0 47 -13l-28 -132
h217q61 0 48 -55l-4 -19q64 79 136 79q63 0 95 -46t32 -119q0 -45 -12.5 -93.5t-37 -94t-57.5 -81.5t-78.5 -57.5t-94.5 -21.5q-38 0 -69 26l-69 -332q-14 -63 -81 -63q-27 0 -47 13zM530 405q-47 0 -99 -64l-55 -261q20 -11 50 -11q71 0 117 76t46 159q0 50 -16 75.5
t-43 25.5z" />
    <glyph glyph-name="tr" unicode="tr" horiz-adv-x="694" 
d="M242 5l88 412q6 25 -21 25h-134l-59 -281q-7 -38 -0.5 -55.5t22.5 -17.5q36 0 56 48q30 0 30 -27q0 -49 -45.5 -83t-92.5 -34q-21 0 -39.5 6.5t-36 23t-22 45t2.5 73.5l64 302h-50q-4 25 7.5 41.5t34.5 16.5h20l18 82q7 32 30.5 47.5t53.5 15.5q27 0 47 -13l-28 -132h217
q60 0 48 -55l-13 -64q65 124 152 124q39 0 61 -26t22 -63q0 -48 -35 -80.5t-94 -19.5q15 28 9.5 52t-29.5 24q-62 0 -122 -186l-31 -151q-6 -32 -30 -47.5t-54 -15.5q-27 0 -47 13z" />
    <glyph glyph-name="tu" unicode="tu" horiz-adv-x="775" 
d="M277 184l53 233q6 25 -21 25h-134l-59 -281q-7 -38 -0.5 -55.5t22.5 -17.5q36 0 56 48q30 0 30 -27q0 -49 -45.5 -83t-92.5 -34q-21 0 -39.5 6.5t-36 23t-22 45t2.5 73.5l64 302h-50q-4 25 7.5 41.5t34.5 16.5h20l18 82q7 32 30.5 47.5t53.5 15.5q27 0 47 -13l-28 -132
h217q61 0 48 -55l-60 -279q-13 -59 34 -59q48 0 92 52l60 283q7 32 30.5 47.5t53.5 15.5q27 0 47 -13l-70 -331q-16 -74 30 -74q26 0 55.5 15t49.5 35q17 -8 17 -24q0 -11 -9 -22q-37 -42 -85.5 -70.5t-87.5 -28.5q-43 0 -69.5 26t-23.5 87q-70 -113 -146 -113
q-39 0 -63.5 19t-32 49.5t-6.5 61t8 62.5z" />
    <glyph glyph-name="tv" unicode="tv" horiz-adv-x="670" 
d="M423 445q-52 -237 5 -349q57 45 91.5 116.5t34.5 142.5q0 53 -16 92t-46 53q1 37 21 57.5t46 19.5q32 -1 56.5 -30.5t24.5 -80.5q0 -109 -45.5 -222t-109 -182.5t-117.5 -69.5q-49 0 -72 79t-19.5 176.5t23.5 169.5q7 25 -21 25h-104l-59 -281q-7 -38 -0.5 -55.5
t22.5 -17.5q36 0 56 48q30 0 30 -27q0 -49 -45.5 -83t-92.5 -34q-21 0 -39.5 6.5t-36 23t-22 45t2.5 73.5l64 302h-50q-4 25 7.5 41.5t34.5 16.5h20l18 82q7 32 30.5 47.5t53.5 15.5q27 0 47 -13l-28 -132h187q61 0 48 -55z" />
    <glyph glyph-name="tw" unicode="tw" horiz-adv-x="921" 
d="M423 445q-49 -228 7 -349q43 42 69.5 121t53.5 225q6 32 30 47.5t54 15.5q29 0 47 -13q-35 -162 -35 -246q0 -86 30 -150q57 45 91.5 116.5t34.5 142.5q0 53 -16 92t-46 53q1 37 21 57.5t46 19.5q32 -1 56.5 -30.5t24.5 -80.5q0 -109 -45.5 -222t-109 -182.5
t-117.5 -69.5q-65 0 -77 193q-40 -90 -86 -141.5t-86 -51.5q-56 0 -77.5 90t-15 186.5t22.5 148.5q7 25 -21 25h-104l-59 -281q-7 -38 -0.5 -55.5t22.5 -17.5q36 0 56 48q30 0 30 -27q0 -49 -45.5 -83t-92.5 -34q-21 0 -39.5 6.5t-36 23t-22 45t2.5 73.5l64 302h-50
q-4 25 7.5 41.5t34.5 16.5h20l18 82q7 32 30.5 47.5t53.5 15.5q27 0 47 -13l-28 -132h187q61 0 48 -55z" />
    <glyph glyph-name="Ti" unicode="Ti" horiz-adv-x="714" 
d="M136 546q0 -35 20 -58q-21 -10 -42 -10q-37 0 -59.5 27.5t-22.5 65.5q0 47 20 83.5t50 57.5t69 35t72.5 18.5t65.5 4.5q42 0 122 -9.5t143.5 -7.5t126.5 25q30 -76 -4 -128.5t-94 -52.5q-20 0 -45.5 8t-43 16.5t-51 26.5t-48.5 25l-131 -617q-14 -64 -86 -64
q-35 0 -53 13l159 704q-2 0 -7 0.5t-7 0.5q-60 0 -107 -42.5t-47 -121.5zM452 111l58 278q5 25 -10 25q-6 0 -20 -12q-11 7 -12.5 24.5t12.5 30.5q60 48 112 48q60 0 48 -55l-61 -289q-16 -74 30 -74q26 0 55.5 15t49.5 35q17 -8 17 -24q0 -11 -9 -22q-88 -99 -181 -99
q-45 0 -73.5 28.5t-15.5 90.5z" />
    <glyph glyph-name="Tj" unicode="Tj" horiz-adv-x="698" 
d="M640 450l-76 -354q-6 -28 -9 -41q97 48 143 87q12 -10 12.5 -24t-11.5 -26q-50 -44 -157 -94q-16 -63 -32 -112t-41.5 -102.5t-56 -88.5t-74 -57.5t-94.5 -22.5q-47 0 -84 32.5t-37 90.5q0 27 9 51t21 43t37.5 39.5t44.5 33.5t57.5 32.5t61.5 30t70 31.5q4 16 25 107
l61 283q5 25 -10 25q-6 0 -20 -12q-11 7 -12.5 24.5t12.5 30.5q60 48 112 48q60 0 48 -55zM136 546q0 -35 20 -58q-21 -10 -42 -10q-37 0 -59.5 27.5t-22.5 65.5q0 47 20 83.5t50 57.5t69 35t72.5 18.5t65.5 4.5q42 0 122 -9.5t143.5 -7.5t126.5 25q30 -76 -4 -128.5
t-94 -52.5q-20 0 -45.5 8t-43 16.5t-51 26.5t-48.5 25l-131 -617q-14 -64 -86 -64q-35 0 -53 13l159 704q-2 0 -7 0.5t-7 0.5q-60 0 -107 -42.5t-47 -121.5zM245 -296q50 0 88 55t73 175q-105 -52 -153.5 -91.5t-48.5 -91.5q0 -23 14 -35t27 -12z" />
    <glyph glyph-name="fm" unicode="fm" horiz-adv-x="993" 
d="M-181 -296q48 0 76.5 65t64.5 231l95 442h-50q-4 25 7.5 41.5t34.5 16.5h20l8 36q21 95 78.5 151t129.5 56q126 0 126 -97q0 -40 -20.5 -62t-49.5 -20q-22 2 -40 14q16 35 16 65q0 29 -37 29q-57 0 -87 -142l-7 -30h221q60 0 48 -55l-9 -40q69 100 148 100q35 0 60.5 -27
t23.5 -76q72 103 150 103q43 0 72 -34.5t12 -112.5l-49 -230q-8 -41 27 -41q26 0 55.5 15t49.5 35q17 -8 17 -24q0 -11 -9 -22q-88 -99 -181 -99q-108 0 -78 142l42 199q7 24 3 41.5t-27 17.5q-44 0 -87 -46l-62 -291q-7 -32 -30.5 -47.5t-53.5 -15.5q-27 0 -47 13l70 328
q7 24 3 41.5t-27 17.5q-48 0 -92 -52l-61 -285q-7 -32 -30.5 -47.5t-53.5 -15.5q-27 0 -47 13l88 412q6 25 -21 25h-137l-95 -442q-46 -214 -97.5 -299.5t-152.5 -85.5q-49 0 -79.5 28.5t-30.5 88.5q0 27 33 27q12 -55 69 -55z" />
    <glyph glyph-name="fn" unicode="fn" horiz-adv-x="759" 
d="M-181 -296q48 0 76.5 65t64.5 231l95 442h-50q-4 25 7.5 41.5t34.5 16.5h20l8 36q21 95 78.5 151t129.5 56q126 0 126 -97q0 -40 -20.5 -62t-49.5 -20q-22 2 -40 14q16 35 16 65q0 29 -37 29q-57 0 -87 -142l-7 -30h221q61 0 48 -55l-9 -40q32 45 76.5 72.5t87.5 27.5
t63.5 -36.5t4.5 -110.5l-49 -230q-8 -41 27 -41q26 0 55.5 15t49.5 35q17 -8 17 -24q0 -11 -9 -22q-88 -99 -181 -99q-108 0 -78 142l42 199q13 59 -27 59q-20 0 -46 -15.5t-43 -36.5l-61 -285q-7 -32 -30.5 -47.5t-53.5 -15.5q-27 0 -47 13l88 412q6 25 -21 25h-137
l-95 -442q-46 -214 -97.5 -299.5t-152.5 -85.5q-49 0 -79.5 28.5t-30.5 88.5q0 27 33 27q12 -55 69 -55z" />
    <glyph glyph-name="fp" unicode="fp" horiz-adv-x="744" 
d="M-181 -296q48 0 76.5 65t64.5 231l95 442h-50q-4 25 7.5 41.5t34.5 16.5h20l8 36q21 95 78.5 151t129.5 56q126 0 126 -97q0 -40 -20.5 -62t-49.5 -20q-22 2 -40 14q16 35 16 65q0 29 -37 29q-57 0 -87 -142l-7 -30h221q61 0 48 -55l-4 -19q64 79 136 79q63 0 95 -46
t32 -119q0 -45 -12.5 -93.5t-37 -94t-57.5 -81.5t-78.5 -57.5t-94.5 -21.5q-38 0 -69 26l-69 -332q-14 -63 -81 -63q-27 0 -47 13l164 781q6 25 -21 25h-137l-95 -442q-46 -214 -97.5 -299.5t-152.5 -85.5q-49 0 -79.5 28.5t-30.5 88.5q0 27 33 27q12 -55 69 -55zM530 405
q-47 0 -99 -64l-55 -261q20 -11 50 -11q71 0 117 76t46 159q0 50 -16 75.5t-43 25.5z" />
    <glyph glyph-name="fr" unicode="fr" horiz-adv-x="694" 
d="M-181 -296q48 0 76.5 65t64.5 231l95 442h-50q-4 25 7.5 41.5t34.5 16.5h20l8 36q21 95 78.5 151t129.5 56q126 0 126 -97q0 -40 -20.5 -62t-49.5 -20q-22 2 -40 14q16 35 16 65q0 29 -37 29q-57 0 -87 -142l-7 -30h221q60 0 48 -55l-13 -64q65 124 152 124q39 0 61 -26
t22 -63q0 -48 -35 -80.5t-94 -19.5q15 28 9.5 52t-29.5 24q-62 0 -122 -186l-31 -151q-6 -32 -30 -47.5t-54 -15.5q-27 0 -47 13l88 412q6 25 -21 25h-137l-95 -442q-46 -214 -97.5 -299.5t-152.5 -85.5q-49 0 -79.5 28.5t-30.5 88.5q0 27 33 27q12 -55 69 -55z" />
    <glyph glyph-name="fu" unicode="fu" horiz-adv-x="775" 
d="M-181 -296q48 0 76.5 65t64.5 231l95 442h-50q-4 25 7.5 41.5t34.5 16.5h20l8 36q21 95 78.5 151t129.5 56q126 0 126 -97q0 -40 -20.5 -62t-49.5 -20q-22 2 -40 14q16 35 16 65q0 29 -37 29q-57 0 -87 -142l-7 -30h221q61 0 48 -55l-60 -279q-13 -59 34 -59q48 0 92 52
l60 283q7 32 30.5 47.5t53.5 15.5q27 0 47 -13l-70 -331q-16 -74 30 -74q26 0 55.5 15t49.5 35q17 -8 17 -24q0 -11 -9 -22q-37 -42 -85.5 -70.5t-87.5 -28.5q-43 0 -69.5 26t-23.5 87q-70 -113 -146 -113q-39 0 -63.5 19t-32 49.5t-6.5 61t8 62.5l53 233q6 25 -21 25h-137
l-95 -442q-46 -214 -97.5 -299.5t-152.5 -85.5q-49 0 -79.5 28.5t-30.5 88.5q0 27 33 27q12 -55 69 -55z" />
    <glyph glyph-name="fv" unicode="fv" horiz-adv-x="670" 
d="M-181 -296q48 0 76.5 65t64.5 231l95 442h-50q-4 25 7.5 41.5t34.5 16.5h20l8 36q21 95 78.5 151t129.5 56q126 0 126 -97q0 -40 -20.5 -62t-49.5 -20q-22 2 -40 14q16 35 16 65q0 29 -37 29q-57 0 -87 -142l-7 -30h191q61 0 48 -55q-52 -237 5 -349q57 45 91.5 116.5
t34.5 142.5q0 53 -16 92t-46 53q1 37 21 57.5t46 19.5q32 -1 56.5 -30.5t24.5 -80.5q0 -109 -45.5 -222t-109 -182.5t-117.5 -69.5q-49 0 -72 79t-19.5 176.5t23.5 169.5q7 25 -21 25h-107l-95 -442q-46 -214 -97.5 -299.5t-152.5 -85.5q-49 0 -79.5 28.5t-30.5 88.5
q0 27 33 27q12 -55 69 -55z" />
    <glyph glyph-name="fw" unicode="fw" horiz-adv-x="921" 
d="M-181 -296q48 0 76.5 65t64.5 231l95 442h-50q-4 25 7.5 41.5t34.5 16.5h20l8 36q21 95 78.5 151t129.5 56q126 0 126 -97q0 -40 -20.5 -62t-49.5 -20q-22 2 -40 14q16 35 16 65q0 29 -37 29q-57 0 -87 -142l-7 -30h191q61 0 48 -55q-49 -228 7 -349q43 42 69.5 121
t53.5 225q6 32 30 47.5t54 15.5q29 0 47 -13q-35 -162 -35 -246q0 -86 30 -150q57 45 91.5 116.5t34.5 142.5q0 53 -16 92t-46 53q1 37 21 57.5t46 19.5q32 -1 56.5 -30.5t24.5 -80.5q0 -109 -45.5 -222t-109 -182.5t-117.5 -69.5q-65 0 -77 193q-40 -90 -86 -141.5
t-86 -51.5q-56 0 -77.5 90t-15 186.5t22.5 148.5q7 25 -21 25h-107l-95 -442q-46 -214 -97.5 -299.5t-152.5 -85.5q-49 0 -79.5 28.5t-30.5 88.5q0 27 33 27q12 -55 69 -55z" />
    <glyph glyph-name=".notdef" horiz-adv-x="678" 
d="M628 223q0 -29 -11 -29q-6 0 -14 4l-71 32q18 24 18 43q0 63 -157 63l-164 107q-31 20 -31 30q0 13 49 25.5t89 12.5q118 0 205 -88t87 -200zM215 18q-165 19 -165 204q0 98 58 175q19 25 30 25q5 0 9.5 -2.5t14.5 -8t17 -9.5l188 -101q0 -47 19.5 -92.5t57.5 -45.5
q29 0 62 37l71 -52q21 -16 21 -22q0 -7 -23 -27q-27 -21 -62 -37l11 -60q2 -14 -9 -26t-29 -15q-18 -4 -32 5t-16 24l-8 46l-20 -4l11 -78q2 -15 -9 -27.5t-29 -14.5t-32.5 6t-16.5 23l-10 79l-23 -2l6 -40q3 -14 -8.5 -27t-28.5 -16q-18 -3 -32 7t-16 25zM253 268l-48 57
l-20 -70l-70 -32l63 -38l7 -78l56 47l76 -16l-28 69l39 67z" />
    <glyph glyph-name=".null" horiz-adv-x="0" 
 />
    <glyph glyph-name="nonmarkingreturn" horiz-adv-x="333" 
 />
    <glyph glyph-name="space" unicode=" " horiz-adv-x="250" 
 />
    <glyph glyph-name="exclam" unicode="!" horiz-adv-x="278" 
d="M302 747l-141 -523q-11 -43 -58 -43q-18 0 -32 9l97 506q14 64 86 64q28 0 48 -13zM19 46q2 29 23 49.5t50 20.5t48.5 -20.5t18.5 -49.5q-2 -29 -23.5 -49.5t-50.5 -20.5t-48.5 20.5t-17.5 49.5z" />
    <glyph glyph-name="quotedbl" unicode="&#x22;" horiz-adv-x="352" 
d="M49 500q-9 0 -15 7t-6 19q38 43 38 83q0 16 -11.5 41t-11.5 43q0 27 20 47t49 20q30 0 50.5 -21t20.5 -50q0 -53 -43.5 -111t-90.5 -78zM227 500q-9 0 -15 7t-6 19q38 43 38 83q0 16 -11.5 41t-11.5 43q0 27 20 47t49 20q30 0 50.5 -21t20.5 -50q0 -53 -43.5 -111
t-90.5 -78z" />
    <glyph glyph-name="numbersign" unicode="#" horiz-adv-x="542" 
d="M518 453h-73l-32 -151h102q9 -67 -47 -67h-70l-52 -243q-27 -2 -44.5 15t-11.5 45l39 183h-143l-52 -243q-27 -2 -44.5 15t-11.5 45l39 183h-106q-8 26 5 46.5t42 20.5h74l32 151h-103q-8 26 5 46.5t42 20.5h71l47 220q67 -4 56 -60l-34 -160h143l47 220q67 -4 56 -60
l-34 -160h105q9 -67 -47 -67zM233 453l-32 -151h143l32 151h-143z" />
    <glyph glyph-name="dollar" unicode="$" horiz-adv-x="570" 
d="M460 879l-31 -117q51 -14 78 -52t27 -81q0 -41 -22 -69.5t-59 -28.5q-15 0 -33 10.5t-25 29.5q23 7 37 30t14 49q0 27 -15.5 45.5t-45.5 18.5q-44 0 -69 -35t-25 -86q0 -39 21.5 -74.5t52.5 -63.5t61.5 -58t52 -71t21.5 -88q0 -109 -69 -174.5t-178 -70.5l-32 -120
q-8 -31 -42 -31q-13 0 -23 7l28 148q-73 15 -112.5 67.5t-39.5 117.5q0 68 42.5 117t116.5 49q26 0 46 -17.5t20 -44.5q0 -15 -7 -32q-48 16 -81.5 -9t-33.5 -70q0 -43 28 -74.5t77 -31.5q59 0 90 40t31 99q0 44 -20.5 81.5t-50 65.5t-59 57t-50 70.5t-20.5 92.5
q0 78 52.5 132t135.5 62l15 73q9 46 62 46q22 0 34 -9z" />
    <glyph glyph-name="ampersand" unicode="&#x26;" horiz-adv-x="833" 
d="M247 571q0 -83 62 -168.5t159 -161.5q19 55 19 118q0 23 -3 45q-29 -1 -44 -20q-28 34 -1.5 69t87.5 35q28 0 71 -7.5t75 -7.5t60 15q26 -32 1 -72.5t-76 -40.5q-18 0 -36.5 3.5t-42.5 10t-35 8.5q7 -40 7 -70q0 -73 -20 -131q113 -75 180 -88q0 -63 -28 -96t-59 -23
q-71 24 -161 94q-87 -91 -211 -91q-102 0 -157.5 57t-55.5 138q0 70 42.5 130t118.5 82q-44 91 -44 172q0 70 51 124.5t127 54.5t117.5 -38t41.5 -101q0 -90 -78 -90q-15 0 -33 10.5t-25 29.5q23 11 35 33t12 43q0 26 -19 41.5t-48 15.5q-89 0 -89 -123zM269 82q75 0 132 54
q-107 99 -174 211q-34 -24 -53 -63.5t-19 -80.5q0 -52 29.5 -86.5t84.5 -34.5z" />
    <glyph glyph-name="quotesingle" unicode="'" horiz-adv-x="132" 
d="M-20 539l40 141q24 70 77 70q21 0 35 -10l-83 -173q-17 -35 -44 -35q-12 0 -25 7z" />
    <glyph glyph-name="parenleft" unicode="(" horiz-adv-x="380" 
d="M184 109q0 -79 23.5 -157t63.5 -133q-16 -28 -49 -35q-81 64 -120 164t-39 195q0 176 85 340.5t258 271.5q33 -13 37 -43q-259 -221 -259 -603z" />
    <glyph glyph-name="parenright" unicode=")" horiz-adv-x="370" 
d="M199 430q0 79 -23.5 157t-63.5 133q16 28 49 35q81 -64 120 -164t39 -195q0 -176 -85 -340.5t-258 -271.5q-33 13 -37 43q259 221 259 603z" />
    <glyph glyph-name="asterisk" unicode="*" horiz-adv-x="487" 
d="M88 626q4 25 28.5 35.5t53.5 -11.5l46 -42l24 114q23 9 45 -8.5t14 -52.5l-12 -53l96 63q23 -11 26 -37.5t-28 -48.5l-66 -42l77 -66q-4 -25 -28.5 -35.5t-53.5 11.5l-47 42l-23 -113q-23 -9 -45 8.5t-14 52.5l11 52l-95 -63q-23 11 -26 37.5t28 48.5l66 42z" />
    <glyph glyph-name="plus" unicode="+" horiz-adv-x="515" 
d="M84 331q-8 13 -8 32.5t18 37t47 17.5h88l31 136q28 10 55 -11t17 -63l-14 -62h122q8 -17 8 -36t-18 -35t-47 -16h-85l-30 -143q-23 -14 -52.5 9.5t-20.5 64.5l15 69h-126z" />
    <glyph glyph-name="comma" unicode="," horiz-adv-x="237" 
d="M-4 -144q-9 -3 -15.5 5t-1.5 21q34 30 47.5 65.5t9.5 61t-17 42.5q4 28 24 47t49 19q30 0 47.5 -19t17.5 -48q0 -56 -46 -113t-115 -81z" />
    <glyph glyph-name="hyphen" unicode="-" horiz-adv-x="335" 
d="M71 245q-33 0 -50 -20q-13 17 -13 36q0 27 24 45.5t65 18.5q22 0 59 -4.5t54 -4.5q30 0 55 15q12 -19 12 -36q0 -29 -24.5 -51t-62.5 -22q-21 0 -58.5 11.5t-60.5 11.5z" />
    <glyph glyph-name="period" unicode="." horiz-adv-x="260" 
d="M19 46q2 29 23 49.5t50 20.5t48.5 -20.5t18.5 -49.5q-2 -29 -23.5 -49.5t-50.5 -20.5t-48.5 20.5t-17.5 49.5z" />
    <glyph glyph-name="slash" unicode="/" horiz-adv-x="384" 
d="M385 678l-346 -686q-27 0 -39.5 22.5t0.5 49.5l346 686q30 0 42 -20.5t-3 -51.5z" />
    <glyph glyph-name="zero" unicode="0" horiz-adv-x="538" 
d="M538 494q0 -65 -11 -132t-37 -134.5t-63.5 -119.5t-95 -84.5t-127.5 -32.5q-45 0 -78 13.5t-53 35.5t-32 56t-16.5 69.5t-4.5 81.5q0 65 11 132t37 134.5t63.5 119.5t95 84.5t127.5 32.5q45 0 78 -13.5t53 -35.5t32 -56t16.5 -69.5t4.5 -81.5zM150 220q0 -77 20 -120
t57 -43q42 0 75 38.5t52.5 93.5t32 122.5t17 119.5t4.5 90q0 77 -20 120t-57 43q-42 0 -75 -38.5t-52.5 -93.5t-32 -122.5t-17 -119.5t-4.5 -90z" />
    <glyph glyph-name="one" unicode="1" horiz-adv-x="301" 
d="M321 742l-147 -691q-14 -64 -86 -64q-28 0 -48 13l119 556q-45 -17 -85 -17q-15 0 -22.5 23t5.5 40q44 9 86.5 35.5t68 51t60.5 64.5q28 4 49 -11z" />
    <glyph glyph-name="two" unicode="2" horiz-adv-x="498" 
d="M208 540q-50 -19 -81.5 2.5t-31.5 72.5q0 63 56.5 101.5t132.5 38.5q84 0 144 -45.5t60 -134.5q0 -51 -24 -97.5t-60.5 -80.5t-82 -70.5t-87 -66.5t-76.5 -69.5t-50 -79.5q140 0 213.5 11.5t118.5 54.5q37 -82 1 -135t-99 -53q-120 0 -247 30q-27 -26 -71 -15
q-14 69 20 134q22 43 65 90t85.5 86.5t83 82.5t66 95t25.5 107q0 44 -23.5 66.5t-57.5 22.5q-41 0 -66.5 -26.5t-25.5 -72.5q0 -22 12 -49z" />
    <glyph glyph-name="three" unicode="3" horiz-adv-x="507" 
d="M538 732q-33 -140 -233 -306q83 -8 121.5 -51.5t38.5 -105.5q0 -112 -71 -194.5t-177 -82.5q-92 0 -144 41.5t-52 116.5q0 61 34 107t97 46q28 0 48 -20t16 -56q-41 9 -65 -11.5t-24 -60.5q0 -41 21.5 -67t62.5 -26q54 0 89 53.5t35 143.5q0 133 -128 115q-14 24 -3 53
q126 108 179 191q-13 1 -63.5 8.5t-88.5 7.5q-64 0 -115 -30q-20 68 10 107t87 39q42 0 103 -10t87 -10q51 0 100 24q23 -4 35 -22z" />
    <glyph glyph-name="four" unicode="4" horiz-adv-x="513" 
d="M20 255q50 51 113 165t63 175q0 83 -50 110q38 43 82 45q41 1 62.5 -19.5t21.5 -68.5q0 -59 -63 -177.5t-127 -182.5q55 3 70.5 3t53 -6t51.5 -8l82 395q14 64 86 64q29 0 48 -13l-91 -437q24 7 44 18q31 -110 -66 -124l-30 -143q-14 -64 -86 -64q-29 0 -48 13l41 196
q-14 1 -40 4t-40 4t-38 1t-49 -2q-24 -1 -47 -8q-33 18 -43 60z" />
    <glyph glyph-name="five" unicode="5" horiz-adv-x="509" 
d="M398 602q-71 0 -187 24l-42 -191q42 13 85 13q102 0 152 -50.5t50 -128.5q0 -112 -71 -194.5t-177 -82.5q-92 0 -144 41.5t-52 116.5q0 61 34 107t97 46q28 0 48 -20t16 -56q-41 9 -65 -11.5t-24 -60.5q0 -41 21.5 -67t62.5 -26q56 0 90 50.5t34 146.5q0 55 -26 91
t-78 36q-31 0 -73 -12q-30 6 -45 34l69 341q211 -36 324 10q2 -22 2 -39q0 -53 -25 -85.5t-76 -32.5z" />
    <glyph glyph-name="six" unicode="6" horiz-adv-x="523" 
d="M377 770q66 0 96 -28t30 -69q0 -28 -21.5 -54.5t-67.5 -19.5q16 109 -56 109q-70 0 -121 -89t-72 -218q62 56 129 56q86 0 132.5 -51.5t46.5 -129.5q0 -50 -17.5 -100t-49 -91.5t-83.5 -67.5t-115 -26q-92 0 -139.5 71t-47.5 181q0 89 25 181t69 169.5t113 127t149 49.5z
M248 380q-40 0 -91 -36q-4 -39 -4 -85q0 -109 18.5 -153.5t59.5 -44.5q45 0 79.5 70.5t34.5 144.5q0 46 -24 75t-73 29z" />
    <glyph glyph-name="seven" unicode="7" horiz-adv-x="420" 
d="M202 52q0 -33 -26.5 -48.5t-59.5 -15.5q-28 0 -48 13q0 107 46 232t104 218t121 166q-40 -2 -95 7.5t-95 9.5q-28 0 -61.5 -9.5t-53.5 -20.5q-20 69 11 117.5t86 48.5q61 0 129.5 -19.5t120.5 -14.5q36 3 80 18q13 -14 17 -31t-6 -31q-143 -160 -206.5 -327t-63.5 -313z
" />
    <glyph glyph-name="eight" unicode="8" horiz-adv-x="485" 
d="M484 616q2 -50 -29.5 -100t-89.5 -85q49 -39 77 -89t28 -129q0 -102 -76 -163.5t-175 -61.5q-90 0 -144 56t-54 134q0 151 158 223q-68 63 -68 140q0 100 63.5 160t144.5 60q75 0 119 -41.5t46 -103.5zM338 187q0 27 -8.5 51t-16 38.5t-30 36t-30.5 28t-37 29.5
q-74 -79 -74 -184q0 -51 23.5 -82.5t71.5 -31.5q42 0 71.5 30t29.5 85zM231 587q0 -41 23.5 -68t71.5 -60q29 32 46.5 88t4 103t-64.5 46q-33 -1 -57 -29.5t-24 -79.5z" />
    <glyph glyph-name="nine" unicode="9" horiz-adv-x="528" 
d="M152 -9q-66 0 -96 28t-30 69q0 28 21.5 54.5t67.5 19.5q-16 -109 56 -109q70 0 121 89t72 217q-63 -55 -129 -55q-86 0 -132.5 60.5t-46.5 150.5q0 97 71.5 176t193.5 79q92 0 139.5 -71t47.5 -181q0 -89 -25 -181t-69 -169.5t-113 -127t-149 -49.5zM281 381q42 0 90 35
q5 48 5 86q0 109 -18.5 153.5t-59.5 44.5q-53 0 -83.5 -58t-30.5 -127q0 -59 24 -96.5t73 -37.5z" />
    <glyph glyph-name="colon" unicode=":" horiz-adv-x="208" 
d="M42 397q2 29 23 49.5t50 20.5t48.5 -20.5t18.5 -49.5q-2 -29 -23.5 -49.5t-50.5 -20.5t-48.5 20.5t-17.5 49.5zM4 103q2 29 23 49.5t50 20.5t48.5 -20.5t18.5 -49.5q-2 -29 -23.5 -49.5t-50.5 -20.5t-48.5 20.5t-17.5 49.5z" />
    <glyph glyph-name="semicolon" unicode=";" horiz-adv-x="237" 
d="M56 397q2 29 23 49.5t50 20.5t48.5 -20.5t18.5 -49.5q-2 -29 -23.5 -49.5t-50.5 -20.5t-48.5 20.5t-17.5 49.5zM-4 -144q-9 -3 -15.5 5t-1.5 21q34 30 47.5 65.5t9.5 61t-17 42.5q4 28 24 47t49 19q30 0 47.5 -19t17.5 -48q0 -56 -46 -113t-115 -81z" />
    <glyph glyph-name="less" unicode="&#x3c;" horiz-adv-x="336" 
d="M346 494q-132 -146 -236 -229q59 -102 174 -225q-29 -27 -63.5 -32t-60.5 23q-125 163 -165 236q96 86 230 236q31 29 65.5 24t55.5 -33z" />
    <glyph glyph-name="equal" unicode="=" horiz-adv-x="357" 
d="M248 233h-227q-9 9 -9 26q0 23 17.5 42t48.5 19h227q8 -13 8 -30q0 -23 -16.5 -40t-48.5 -17zM282 393h-227q-9 9 -9 26q0 23 17.5 42t48.5 19h227q8 -13 8 -30q0 -23 -16.5 -40t-48.5 -17z" />
    <glyph glyph-name="greater" unicode="&#x3e;" horiz-adv-x="336" 
d="M-10 40q141 154 235 229q-57 101 -173 225q29 27 63.5 32t60.5 -23q125 -163 165 -236q-96 -86 -230 -236q-31 -29 -65.5 -24t-55.5 33z" />
    <glyph glyph-name="question" unicode="?" horiz-adv-x="353" 
d="M113 554q-19 -22 -49 -22q-59 0 -59 82q0 65 51.5 110.5t127.5 45.5q68 0 118 -40t50 -111q0 -43 -17 -81.5t-35 -60t-53 -57.5q-34 -36 -51.5 -57t-35 -61t-17.5 -83q0 -26 -23.5 -37.5t-63.5 0.5q0 60 16 112t31 76t46 66q25 32 37.5 51.5t24 54t11.5 71.5
q0 35 -15.5 53t-38.5 18q-36 0 -56 -24t-20 -57t21 -49zM24 59q2 29 23 49.5t50 20.5t48.5 -20.5t18.5 -49.5q-2 -29 -23.5 -49.5t-50.5 -20.5t-48.5 20.5t-17.5 49.5z" />
    <glyph glyph-name="at" unicode="@" horiz-adv-x="650" 
d="M384 119q-65 0 -66 69q-49 -69 -103 -69q-31 0 -50.5 21t-25 44.5t-5.5 50.5q0 57 20 112t57 90q45 40 90 40q47 0 64 -35q15 31 55 31q21 0 33 -9l-48 -228q-11 -52 23 -52q52 0 88 61t36 138q0 215 -204 215q-130 0 -205.5 -94.5t-75.5 -238.5q0 -112 57.5 -179.5
t170.5 -67.5q60 0 115 20t81 50q27 -6 30.5 -28t-9.5 -35q-52 -70 -213 -70q-159 0 -247 87.5t-88 229.5q0 77 24.5 144t72 119.5t124.5 82.5t175 30q145 0 216.5 -74.5t71.5 -186.5q0 -100 -77.5 -184t-186.5 -84zM254 198q34 0 67 39l37 179q-44 29 -81 -13
q-56 -63 -56 -163q0 -20 9 -31t24 -11z" />
    <glyph glyph-name="A" unicode="A" horiz-adv-x="647" 
d="M655 91q-97 -99 -173 -99q-51 0 -83 28.5t-19 90.5l34 162h-112q-65 -150 -126 -215.5t-128 -65.5q-39 0 -62.5 36t-23.5 101q0 75 85 75q28 0 50 -17q-21 -48 -21 -103v-9q33 12 65 45.5t72 102t88 193t101 300.5h-20q-63 0 -93.5 -29t-30.5 -69q0 -35 20 -58
q-21 -10 -43 -10q-37 0 -59 28t-22 67q0 54 42 94.5t124 40.5q50 0 169 -17t162 -3q14 -8 14 -26q0 -15 -9.5 -27t-25.5 -12h-4l-114 -534q-15 -74 33 -74q22 0 51.5 16t50.5 34q17 -8 17 -24q0 -11 -9 -22zM506 707q-36 4 -55 6q-66 -232 -125 -382h100z" />
    <glyph glyph-name="B" unicode="B" horiz-adv-x="623" 
d="M473 613q0 57 -29.5 83.5t-91.5 26.5q-80 0 -148 -46.5t-68 -117.5q0 -35 20 -58q-21 -10 -43 -10q-37 0 -59 28t-22 67q0 53 52 96.5t128 65.5t156 22q103 0 159 -32t56 -113q0 -60 -42 -120.5t-115 -99.5l1 -1q75 0 113 -35t38 -92q0 -46 -24 -96t-65 -92t-103 -69.5
t-131 -27.5q-85 0 -143.5 21t-58.5 55q0 39 40 52q20 -17 46 -32l114 538q14 64 86 64q29 0 48 -13l-58 -271q60 18 102 81t42 126zM363 361q-21 0 -45 -6l-64 -299h1q76 0 135.5 67.5t59.5 148.5q0 41 -22 65t-65 24z" />
    <glyph glyph-name="C" unicode="C" horiz-adv-x="486" 
d="M358 770q68 0 103.5 -38t35.5 -89q0 -41 -22.5 -71.5t-58.5 -30.5q-16 0 -33.5 10.5t-25.5 29.5q29 12 41 41.5t-2.5 54.5t-51.5 25q-43 0 -84.5 -56t-67.5 -150t-26 -195q0 -96 34.5 -156t106.5 -60q86 0 179 52q17 -8 17 -24q0 -13 -9 -22q-99 -99 -243 -99
q-111 0 -168.5 83.5t-57.5 208.5q0 126 44.5 238t122 180t166.5 68z" />
    <glyph glyph-name="D" unicode="D" horiz-adv-x="691" 
d="M68 153q30 0 77 -27q18 30 30 81l89 419q14 64 86 64q28 0 48 -13l-95 -435q-24 -105 -73 -167q41 -19 77 -19q77 0 134 65.5t82.5 157.5t25.5 191q0 110 -45 181t-138 71q-113 0 -171.5 -47t-58.5 -116q0 -35 20 -58q-21 -10 -43 -10q-37 0 -59 28t-22 67
q0 79 91.5 131.5t261.5 52.5q76 0 133.5 -24t91.5 -66t51 -94t17 -114q0 -85 -24 -169t-68 -154t-113.5 -113.5t-151.5 -43.5q-68 0 -132 44q-58 -44 -136 -44q-39 0 -64 19t-25 51q0 35 28.5 63t75.5 28zM60 66q33 0 60 27q-32 27 -51 27q-20 0 -32.5 -9t-12.5 -20t10 -18
t26 -7z" />
    <glyph glyph-name="E" unicode="E" horiz-adv-x="486" 
d="M137 571q0 79 58.5 139t156.5 60q82 0 122.5 -35.5t40.5 -88.5q0 -43 -23 -74t-59 -31q-15 0 -33 10.5t-25 29.5q22 6 35.5 28t13.5 46q0 25 -15 42t-44 17q-55 0 -87.5 -43.5t-32.5 -102.5q0 -51 26 -91t76 -52q3 -22 -10 -38q-70 -5 -112 -59t-42 -120q0 -54 30.5 -91
t88.5 -37q108 0 184 57q17 -8 17 -24q0 -13 -9 -22q-50 -50 -120.5 -74.5t-142.5 -24.5q-93 0 -141 57t-48 141q0 76 47.5 142t127.5 91q-80 52 -80 148z" />
    <glyph glyph-name="F" unicode="F" horiz-adv-x="484" 
d="M136 546q0 -35 20 -58q-21 -10 -42 -10q-37 0 -59.5 27.5t-22.5 65.5q0 47 20 83.5t50 57.5t69 35t72.5 18.5t65.5 4.5q35 0 100.5 -9.5t118 -7.5t103.5 25q16 -66 -13.5 -108.5t-84.5 -42.5q-7 0 -16 1.5t-16 3t-18.5 5.5t-18 6.5t-20 8t-18.5 8t-20 9t-19 8.5l-56 -262
q10 -1 33.5 -4.5t35 -4t29 1.5t31.5 9q19 -23 1 -52.5t-56 -29.5q-13 0 -27.5 2.5t-32.5 7.5t-27 7l-63 -296q-14 -64 -86 -64q-35 0 -53 13l159 704q-56 -6 -97.5 -48t-41.5 -115z" />
    <glyph glyph-name="G" unicode="G" horiz-adv-x="572" 
d="M251 -8q-111 0 -168.5 83.5t-57.5 208.5q0 126 44.5 238t122 180t166.5 68q97 0 128 -75q24 -57 -3 -114q-25 -51 -71 -51q-15 0 -33 10.5t-25 29.5q25 15 35 44.5t-2 53.5t-43 24q-66 0 -122 -120t-56 -271q0 -96 34.5 -156t106.5 -60q47 0 86.5 50.5t45.5 138.5
q-8 -2 -31 -8.5t-39.5 -9.5t-32.5 -3q-51 0 -76 40.5t1 72.5q27 -15 57 -15t71 7.5t68 7.5q51 0 73.5 -32t-1.5 -64q-11 11 -29 12q-11 -145 -82.5 -217.5t-166.5 -72.5z" />
    <glyph glyph-name="H" unicode="H" horiz-adv-x="672" 
d="M680 91q-106 -99 -174 -99q-54 0 -83 32.5t-12 112.5l53 251q-69 -24 -156 -26l-65 -306q-14 -64 -86 -64q-35 0 -53 13l161 711h-5q-63 0 -93.5 -29t-30.5 -69q0 -35 20 -58q-21 -10 -43 -10q-37 0 -59 28t-22 67q0 54 42 94.5t124 40.5q33 0 110 -16.5t101 -3.5
q14 -8 14 -26q0 -15 -9.5 -27t-25.5 -12h-9l-57 -265q66 0 152 8l53 248q14 64 86 64q27 0 48 -13l-124 -576q-14 -74 33 -74q44 0 102 50q17 -8 17 -24q0 -11 -9 -22z" />
    <glyph glyph-name="I" unicode="I" horiz-adv-x="383" 
d="M260 716q-63 0 -93.5 -29t-30.5 -69q0 -35 20 -58q-21 -10 -43 -10q-37 0 -59 28t-22 67q0 54 42 94.5t124 40.5q33 0 110 -16.5t101 -3.5q14 -8 14 -26q0 -15 -9.5 -27t-25.5 -12h-9l-136 -639q-14 -64 -86 -64q-35 0 -53 13l161 711h-5z" />
    <glyph glyph-name="J" unicode="J" horiz-adv-x="536" 
d="M164 -143q45 0 73 49.5t57 179.5l137 630q-62 0 -92.5 -29t-30.5 -69q0 -35 20 -58q-21 -10 -43 -10q-37 0 -59 28t-22 67q0 54 42 94.5t124 40.5q33 0 110 -16.5t101 -3.5q14 -8 14 -26q0 -15 -9.5 -27t-25.5 -12q-8 0 -12 1l-137 -649q-53 -248 -246 -248
q-73 0 -110.5 43t-37.5 103q0 57 34 99t91 42q54 0 74.5 -31t0.5 -86q-19 18 -47 18q-36 0 -54.5 -21t-18.5 -49q0 -23 18.5 -41.5t48.5 -18.5z" />
    <glyph glyph-name="K" unicode="K" horiz-adv-x="660" 
d="M519 -8q-41 0 -72.5 31.5t-49.5 86t-28.5 110.5t-15.5 122l-51 -7l-59 -279q-14 -64 -86 -64q-35 0 -53 13l161 711h-5q-63 0 -93.5 -29t-30.5 -69q0 -35 20 -58q-21 -10 -43 -10q-37 0 -59 28t-22 67q0 54 42 94.5t124 40.5q33 0 110 -16.5t101 -3.5q14 -8 14 -26
q0 -15 -9.5 -27t-25.5 -12h-9l-65 -307l24 8q49 29 86.5 71t60 94t35 92t23.5 93q15 8 37 8q26 0 47.5 -17t21.5 -43q0 -133 -186 -282q32 -325 119 -325q20 0 41.5 14.5t36.5 35.5q15 -7 15 -23q0 -32 -46 -77t-110 -45z" />
    <glyph glyph-name="L" unicode="L" horiz-adv-x="514" 
d="M397 698h-11l-99 -456q-18 -78 -48 -128q85 -26 134 -26q87 0 141 49q17 -8 17 -24q0 -26 -58.5 -73.5t-123.5 -47.5q-98 0 -164 55q-64 -53 -157 -53q-62 0 -77 47q-14 41 20 78q30 34 81 34q43 0 87 -11q10 24 20 65l108 512q-56 -1 -86 -30.5t-30 -77.5q0 -24 14 -52
q-64 -17 -95 9t-31 71q0 142 168 140q27 0 62 -6t58.5 -11t51 -6.5t39.5 7.5q14 -8 14 -26q0 -15 -9.5 -27t-25.5 -12zM47 69q40 0 68 34q-29 17 -62 17q-34 0 -44 -22q-8 -18 16 -26q9 -3 22 -3z" />
    <glyph glyph-name="M" unicode="M" horiz-adv-x="949" 
d="M432 716q-63 0 -93.5 -29t-30.5 -69q0 -35 20 -58q-21 -10 -43 -10q-37 0 -59 28t-22 67q0 54 42 94.5t124 40.5q33 0 110 -16.5t101 -3.5q14 -8 14 -26q0 -15 -9.5 -27t-25.5 -12h-1l-36 -532l232 523q26 64 86 64q35 0 55 -13l-82 -576q-6 -42 2.5 -58t30.5 -16
t51.5 16t50.5 34q17 -8 17 -24q0 -11 -9 -22q-96 -99 -172 -99q-49 0 -79.5 28t-20.5 91l67 452l-218 -512q-23 -59 -85 -59q-29 0 -48 13l36 443l5 117q-67 -213 -127.5 -340.5t-115.5 -180t-116 -52.5q-39 0 -62.5 36t-23.5 101q0 75 85 75q28 0 50 -17q-21 -48 -21 -103
v-9q33 12 65 45.5t72 102t88 193t101 300.5h-5z" />
    <glyph glyph-name="N" unicode="N" horiz-adv-x="671" 
d="M315 716q-63 0 -93.5 -29t-30.5 -69q0 -35 20 -58q-21 -10 -43 -10q-37 0 -59 28t-22 67q0 54 42 94.5t124 40.5q33 0 110 -16.5t101 -3.5q14 -8 14 -26q0 -15 -9.5 -27t-25.5 -12h-1l108 -467q48 188 48 326q0 137 -53 210q29 26 82 26q66 0 66 -83q0 -166 -77 -438
l-78 -272q-52 -17 -63 28l-125 545q-30 -170 -63 -288t-67.5 -179t-66.5 -86t-67 -25q-39 0 -62.5 36t-23.5 101q0 75 85 75q28 0 50 -17q-21 -48 -21 -103v-5q117 76 205 626l-3 11h-1z" />
    <glyph glyph-name="O" unicode="O" horiz-adv-x="530" 
d="M348 692q-57 0 -105.5 -62.5t-73.5 -150.5t-25 -173q0 -83 26 -135t78 -52q74 0 137.5 104.5t63.5 287.5q0 86 -28.5 133.5t-72.5 47.5zM202 -8q-97 0 -148 83t-51 209q0 84 23.5 169t65 156t107.5 116t143 45q98 0 147.5 -73t49.5 -185q0 -90 -23.5 -181t-65.5 -167
t-107 -124t-141 -48z" />
    <glyph glyph-name="P" unicode="P" horiz-adv-x="631" 
d="M116 5l140 623q7 32 30 47t53 15q27 0 47 -13l-70 -330q79 4 132.5 71t53.5 170q0 59 -34.5 96.5t-106.5 37.5q-116 0 -170.5 -48.5t-54.5 -114.5q0 -35 20 -58q-21 -10 -43 -10q-37 0 -59 28t-22 67q0 86 98.5 135t250.5 49q124 0 184 -48.5t60 -125.5
q0 -132 -88.5 -214t-215.5 -82h-15l-51 -244q-14 -64 -86 -64q-35 0 -53 13z" />
    <glyph glyph-name="Q" unicode="Q" horiz-adv-x="544" 
d="M202 -8q-97 0 -148 83t-51 209q0 84 23.5 169t65 156t107.5 116t143 45q98 0 147.5 -73t49.5 -185q0 -147 -59.5 -287t-158.5 -199q23 -54 50.5 -74.5t70.5 -20.5q38 0 84 33q13 -8 15 -24t-6 -24q-21 -30 -59 -47.5t-75 -17.5q-72 0 -115 29t-76 113q-2 0 -4.5 -0.5
t-3.5 -0.5zM348 692q-57 0 -105.5 -62.5t-73.5 -150.5t-25 -173q0 -83 26 -135t78 -52q74 0 137.5 104.5t63.5 287.5q0 86 -28.5 133.5t-72.5 47.5z" />
    <glyph glyph-name="R" unicode="R" horiz-adv-x="684" 
d="M519 -8q-129 0 -163 310q-22 -2 -35 -2h-14l-52 -244q-14 -64 -86 -64q-35 0 -53 13l141 623q7 32 30 47t53 15q28 0 47 -13l-70 -330q74 6 129.5 82.5t55.5 158.5q0 59 -34.5 96.5t-106.5 37.5q-116 0 -170.5 -48.5t-54.5 -114.5q0 -35 20 -58q-21 -10 -43 -10
q-37 0 -59 28t-22 67q0 86 98.5 135t250.5 49q124 0 184 -48.5t60 -125.5q0 -68 -43 -138t-112 -113q35 -258 112 -258q22 0 52 16t50 34q17 -8 17 -24q0 -11 -9 -22q-94 -99 -173 -99z" />
    <glyph glyph-name="S" unicode="S" horiz-adv-x="570" 
d="M372 770q79 0 120.5 -42.5t41.5 -98.5q0 -41 -22 -69.5t-59 -28.5q-15 0 -33 10.5t-25 29.5q23 7 37 30t14 49q0 27 -15.5 45.5t-45.5 18.5q-44 0 -69 -35t-25 -86q0 -39 21.5 -74.5t52.5 -63.5t61.5 -58t52 -71t21.5 -88q0 -114 -74.5 -180t-189.5 -66q-98 0 -151 56.5
t-53 133.5q0 68 42.5 117t116.5 49q26 0 46 -17.5t20 -44.5q0 -15 -7 -32q-48 16 -81.5 -9t-33.5 -70q0 -43 28 -74.5t77 -31.5q59 0 90 40t31 99q0 44 -20.5 81.5t-50 65.5t-59 57t-50 70.5t-20.5 92.5q0 84 60 139.5t151 55.5z" />
    <glyph glyph-name="T" unicode="T" horiz-adv-x="466" 
d="M136 546q0 -35 20 -58q-21 -10 -42 -10q-37 0 -59.5 27.5t-22.5 65.5q0 47 20 83.5t50 57.5t69 35t72.5 18.5t65.5 4.5q35 0 100.5 -9.5t118 -7.5t103.5 25q16 -66 -13.5 -108.5t-84.5 -42.5q-36 0 -120 37l-129 -608q-14 -64 -86 -64q-35 0 -53 13l159 703q-10 2 -14 2
q-60 0 -107 -42.5t-47 -121.5z" />
    <glyph glyph-name="U" unicode="U" horiz-adv-x="642" 
d="M260 716q-63 0 -93.5 -29t-30.5 -69q0 -35 20 -58q-21 -10 -43 -10q-37 0 -59 28t-22 67q0 54 42 94.5t124 40.5q33 0 110 -16.5t101 -3.5q14 -8 14 -26q0 -15 -9.5 -27t-25.5 -12h-7l-85 -402q-23 -119 -12.5 -158.5t57.5 -39.5q55 0 106 85.5t80 206t29 230.5
q0 98 -35 148q27 33 72 39q34 4 52 -13t20 -39q2 -26 2 -39q0 -88 -31.5 -210.5t-81.5 -236.5t-123 -194t-147 -80q-82 0 -111 77t4 249l84 398h-1z" />
    <glyph glyph-name="V" unicode="V" horiz-adv-x="670" 
d="M291 0l-17 716q-60 -1 -89.5 -30t-29.5 -68q0 -35 20 -58q-21 -10 -43 -10q-37 0 -59 28t-22 67q0 54 42 94.5t124 40.5q33 0 110 -16.5t101 -3.5q14 -8 14 -26q0 -15 -9.5 -27t-25.5 -12h-5l8 -567l95 180q21 39 39 81t35 94t25 99t5.5 95t-19.5 83q32 30 76 30
q34 0 50 -19t16 -41q0 -52 -16 -112t-51.5 -135t-55 -112t-63.5 -115l-117 -207q-18 -33 -37 -47.5t-46 -14.5q-36 0 -55 13z" />
    <glyph glyph-name="W" unicode="W" horiz-adv-x="946" 
d="M292 0l-18 716q-60 -1 -89.5 -30t-29.5 -68q0 -35 20 -58q-21 -10 -43 -10q-37 0 -59 28t-22 67q0 54 42 94.5t124 40.5q33 0 110 -16.5t101 -3.5q14 -8 14 -26q0 -15 -9.5 -27t-25.5 -12h-5l7 -533l169 534q18 54 73 54q31 0 47 -11l36 -605l73 182q22 54 37.5 108
t27.5 117.5t6 122.5t-32 100q26 26 76 26q69 0 69 -82q0 -120 -138 -439l-95 -218q-26 -64 -85 -64q-35 0 -55 13l-35 526l-151 -475q-26 -64 -85 -64q-35 0 -55 13z" />
    <glyph glyph-name="X" unicode="X" horiz-adv-x="620" 
d="M482 -8q-38 0 -65.5 23t-36.5 69l-36 168q-71 -125 -141 -192.5t-127 -67.5q-39 0 -62.5 36t-23.5 101q0 75 85 75q28 0 50 -17q-21 -48 -21 -103v-8q44 21 102 85.5t120 176.5l-80 377q-54 -5 -79.5 -33t-25.5 -64q0 -35 20 -58q-21 -10 -43 -10q-37 0 -59 28t-22 67
q0 54 42 94.5t124 40.5q33 0 110 -16.5t101 -3.5q14 -8 14 -26q0 -15 -9.5 -27t-25.5 -12h-3l51 -247q103 142 87 316q36 26 66 26q32 0 44.5 -18t12.5 -39q0 -102 -52 -183t-146 -162l54 -260q8 -41 38 -41q22 0 52 16t50 34q17 -8 17 -24q0 -11 -9 -22q-94 -99 -173 -99z
" />
    <glyph glyph-name="Y" unicode="Y" horiz-adv-x="650" 
d="M515 307l-52 -243q-8 -37 -35 -54.5t-61 -17.5q-31 0 -54 15l66 302l-104 406q-52 -6 -77.5 -33.5t-25.5 -63.5q0 -35 20 -58q-21 -10 -43 -10q-37 0 -59 28t-22 67q0 54 42 94.5t124 40.5q33 0 110 -16.5t101 -3.5q14 -8 14 -26q0 -15 -9.5 -27t-25.5 -12h-3l76 -315
q130 191 101 384q26 26 66 26q32 0 45.5 -19t11.5 -38q-8 -94 -68 -211t-138 -215z" />
    <glyph glyph-name="Z" unicode="Z" horiz-adv-x="476" 
d="M311 -8q-96 0 -165 57q-71 -57 -146 -57q-39 0 -63.5 17.5t-24.5 52.5t28.5 63t75.5 28q34 0 81 -9q6 9 17 31l254 504q-26 -1 -79.5 0.5t-81 0.5t-66 -11.5t-68.5 -32.5q-26 29 -26 61q0 36 23 59.5t69 23.5q58 0 169.5 -18t176.5 -18q34 0 50 16q17 -6 17 -26
q0 -16 -11.5 -30t-33.5 -17l-247 -490q-27 -52 -53 -85q79 -24 128 -24q87 0 141 49q17 -8 17 -24q0 -26 -58.5 -73.5t-123.5 -47.5zM17 120q-20 0 -32.5 -9t-12.5 -20q0 -10 9.5 -17.5t27.5 -7.5q33 0 64 40q-28 14 -56 14z" />
    <glyph glyph-name="bracketleft" unicode="[" horiz-adv-x="422" 
d="M35 -80q16 78 85.5 356.5t89.5 398.5q-32 11 -32 49q0 32 21 46.5t53 14.5q34 0 47 -36q4 0 35 11.5t49 11.5q51 0 71 -37.5t-6 -72.5q-27 15 -67 15q-33 0 -75 -4q-19 -106 -80.5 -372t-78.5 -350q44 14 68 14q51 0 76 -40.5t-1 -72.5q-25 15 -59.5 15t-80.5 -7.5
t-71 -7.5q-26 0 -38 10t-10.5 25t4.5 33z" />
    <glyph glyph-name="bracketright" unicode="]" horiz-adv-x="402" 
d="M367 717q-16 -76 -86 -355t-90 -400q33 -11 33 -49q0 -32 -21 -46.5t-53 -14.5q-34 0 -47 36q-4 0 -35 -11.5t-49 -11.5q-51 0 -71 37.5t6 72.5q27 -15 67 -15q31 0 75 4q19 106 80 372.5t78 349.5q-44 -14 -67 -14q-51 0 -76 40.5t1 72.5q25 -15 59.5 -15t80.5 7.5
t71 7.5q26 0 38 -10t10.5 -25t-4.5 -33z" />
    <glyph glyph-name="underscore" unicode="_" horiz-adv-x="496" 
d="M405 -28h-384q-9 9 -9 26q0 23 17.5 42t48.5 19h384q8 -13 8 -30q0 -23 -16.5 -40t-48.5 -17z" />
    <glyph glyph-name="a" unicode="a" horiz-adv-x="524" 
d="M241 509q66 0 103 -33q25 29 68 29q28 0 47 -13l-70 -331q-16 -74 30 -74q26 0 55.5 15t49.5 35q17 -8 17 -24q0 -11 -9 -22q-37 -42 -85.5 -70.5t-87.5 -28.5q-41 0 -67.5 23.5t-25.5 77.5q-72 -101 -152 -101q-37 0 -63 16.5t-38.5 44t-18 53.5t-5.5 54q0 134 75 241.5
t177 107.5zM268 158l56 268q-23 8 -47 8q-43 0 -76.5 -26t-51.5 -67t-27 -85.5t-9 -88.5q0 -36 15 -54t39 -18t52.5 17.5t48.5 45.5z" />
    <glyph glyph-name="b" unicode="b" horiz-adv-x="455" 
d="M3 263l72 335q4 20 -6.5 24.5t-22.5 -10.5q-15 14 -15 31q0 18 43.5 44.5t82.5 26.5q60 0 48 -55l-47 -232q66 78 137 78q58 0 91.5 -42t33.5 -114q0 -83 -47 -166.5t-120.5 -137t-146.5 -53.5q-79 0 -105 78t2 193zM294 327q0 77 -54 77q-52 0 -99 -60
q-31 -135 -31 -178q0 -71 49 -71q53 0 94 71.5t41 160.5z" />
    <glyph glyph-name="c" unicode="c" horiz-adv-x="415" 
d="M441 153q-51 -74 -129 -117.5t-153 -43.5t-122.5 45.5t-47.5 133.5q0 78 31.5 155.5t91.5 130t132 52.5q121 0 121 -97q0 -40 -20 -61t-50 -21q-25 0 -40 14q16 35 16 65q0 29 -37 29q-44 0 -82.5 -74t-38.5 -177q0 -56 26 -82t70 -26q53 0 113.5 32t93.5 76
q19 4 26.5 -8t-1.5 -26z" />
    <glyph glyph-name="d" unicode="d" horiz-adv-x="522" 
d="M357 -8q-92 0 -91 101q-72 -101 -152 -101q-37 0 -63 16.5t-38.5 44t-18 53.5t-5.5 54q0 134 75 241.5t177 107.5q61 0 96 -28l25 117q4 20 -6.5 24.5t-22.5 -10.5q-15 14 -15 31q0 18 43.5 44.5t82.5 26.5q60 0 48 -55l-105 -498q-16 -74 30 -74q26 0 55.5 15t49.5 35
q17 -8 17 -24q0 -11 -9 -22q-37 -42 -85.5 -70.5t-87.5 -28.5zM268 158v-1l57 268q-25 9 -48 9q-43 0 -76.5 -26t-51.5 -67t-27 -85.5t-9 -88.5q0 -36 15 -54t39 -18t52.5 17.5t48.5 45.5z" />
    <glyph glyph-name="e" unicode="e" horiz-adv-x="415" 
d="M354 413q0 -68 -50 -125.5t-188 -134.5q14 -74 93 -74q53 0 113.5 32t93.5 76q19 4 26.5 -8t-1.5 -26q-51 -74 -129 -117.5t-153 -43.5t-122.5 45.5t-47.5 133.5q0 51 16.5 108t46.5 109.5t79.5 86.5t108.5 34q62 0 88 -28t26 -68zM247 431q-35 0 -62 -26t-41.5 -66
t-22 -76t-8.5 -67q163 103 163 196q0 17 -8 28t-21 11z" />
    <glyph glyph-name="f" unicode="f" horiz-adv-x="250" 
d="M219 442h-47l-95 -442q-46 -214 -97.5 -299.5t-152.5 -85.5q-49 0 -79.5 28.5t-30.5 88.5q0 27 33 27q12 -55 69 -55q48 0 76.5 65t64.5 231l95 442h-50q-4 25 7.5 41.5t34.5 16.5h20l8 36q21 95 78.5 151t129.5 56q126 0 126 -97q0 -40 -20.5 -62t-49.5 -20
q-22 2 -40 14q16 35 16 65q0 29 -37 29q-57 0 -87 -142l-7 -30h77q4 -25 -7.5 -41.5t-34.5 -16.5z" />
    <glyph glyph-name="g" unicode="g" horiz-adv-x="499" 
d="M510 92q-50 -44 -157 -94q-15 -63 -30.5 -112t-40.5 -102.5t-54 -88t-71 -57.5t-92 -23q-49 0 -83.5 32t-34.5 91q0 44 26 86.5t69.5 76.5t92.5 60t103 46q14 50 22 78q-69 -93 -146 -93q-37 0 -63 16.5t-38.5 44t-18 53.5t-5.5 54q0 134 75 241.5t177 107.5
q64 0 102 -33q25 29 69 29q28 0 47 -13l-84 -396q-6 -28 -9 -41q97 48 143 87q12 -10 12.5 -24t-11.5 -26zM268 158l56 268q-23 8 -47 8q-43 0 -76.5 -26t-51.5 -67t-27 -85.5t-9 -88.5q0 -36 15 -54t39 -18t52.5 17.5t48.5 45.5zM56 -296q50 0 86 53t75 180
q-86 -34 -144 -85.5t-58 -100.5q0 -23 14 -35t27 -12z" />
    <glyph glyph-name="h" unicode="h" horiz-adv-x="476" 
d="M303 -8q-108 0 -78 142l42 199q7 24 3 41.5t-27 17.5q-48 0 -93 -53l-63 -284q-7 -32 -30.5 -47.5t-53.5 -15.5q-27 0 -42 10l127 596q4 20 -6.5 24.5t-22.5 -10.5q-15 14 -15 31q0 18 43.5 44.5t82.5 26.5q60 0 48 -55l-52 -245q64 91 133 91q48 0 79.5 -34t14.5 -113
l-49 -230q-8 -41 27 -41q26 0 55.5 15t49.5 35q17 -8 17 -24q0 -11 -9 -22q-88 -99 -181 -99z" />
    <glyph glyph-name="i" unicode="i" horiz-adv-x="248" 
d="M77 634q3 29 25 49.5t51 20.5t48 -20.5t16 -49.5q-5 -30 -27 -50t-51 -20q-30 0 -48 20.5t-14 49.5zM-14 111l58 278q5 25 -10 25q-6 0 -20 -12q-11 7 -12.5 24.5t12.5 30.5q60 48 112 48q60 0 48 -55l-61 -289q-16 -74 30 -74q26 0 55.5 15t49.5 35q17 -8 17 -24
q0 -11 -9 -22q-88 -99 -181 -99q-45 0 -73.5 28.5t-15.5 90.5z" />
    <glyph glyph-name="j" unicode="j" horiz-adv-x="229" 
d="M174 450l-76 -354q-6 -28 -9 -41q97 48 143 87q12 -10 12.5 -24t-11.5 -26q-50 -44 -157 -94q-16 -63 -32 -112t-41.5 -102.5t-56 -88.5t-74 -57.5t-94.5 -22.5q-47 0 -84 32.5t-37 90.5q0 27 9 51t20.5 42.5t38 39.5t45 34t58 32.5t61 30t69.5 31.5q11 40 25 107l61 283
q5 25 -10 25q-6 0 -20 -12q-11 7 -12.5 24.5t12.5 30.5q60 48 112 48q60 0 48 -55zM-221 -296q50 0 88.5 55.5t73.5 174.5q-105 -52 -154 -91.5t-49 -91.5q0 -23 14 -35t27 -12zM79 634q2 29 23 49.5t50 20.5t48.5 -20.5t18.5 -49.5q-2 -29 -23.5 -49.5t-50.5 -20.5
t-48.5 20.5t-17.5 49.5z" />
    <glyph glyph-name="k" unicode="k" horiz-adv-x="427" 
d="M217 659l-82 -383l20 5q97 29 97 116q0 41 -14 62q10 21 31 33.5t47 12.5q29 0 42.5 -17.5t13.5 -57.5q1 -56 -35.5 -100.5t-89.5 -69.5q40 -165 112 -165q23 0 68 42q17 -8 17 -24q0 -11 -9 -22q-30 -36 -74 -67.5t-73 -31.5q-23 0 -42 10t-33.5 32t-24 40t-18.5 52
t-12 48t-9 46q0 2 -0.5 3.5l-1 3t-0.5 3.5l-23 -6l-36 -169q-6 -32 -28.5 -47.5t-50.5 -15.5q-27 0 -47 13l125 593q6 25 -10 25q-7 0 -20 -12q-11 7 -12.5 24.5t12.5 30.5q60 48 112 48q58 0 48 -55z" />
    <glyph glyph-name="l" unicode="l" horiz-adv-x="323" 
d="M350 155q-26 -67 -101 -115t-146 -48q-57 0 -88 36.5t-22 111.5q36 287 93 430.5t151 143.5q36 0 58 -21.5t22 -59.5q0 -61 -50.5 -177t-143.5 -258q-4 -23 -5 -37q-5 -37 10.5 -54.5t43.5 -17.5q43 0 91.5 32t62.5 72q14 2 21.5 -10.5t2.5 -27.5zM244 648q-24 0 -53 -99
t-55 -262q59 109 92 207t33 132q0 22 -17 22z" />
    <glyph glyph-name="m" unicode="m" horiz-adv-x="713" 
d="M174 450l-10 -45q69 100 148 100q35 0 60.5 -27t23.5 -76q72 103 150 103q44 0 72.5 -34.5t11.5 -112.5l-49 -230q-8 -41 27 -41q26 0 55.5 15t49.5 35q17 -8 17 -24q0 -11 -9 -22q-88 -99 -181 -99q-108 0 -78 142l42 199q15 59 -24 59q-44 0 -87 -46l-62 -291
q-7 -32 -30.5 -47.5t-53.5 -15.5q-28 0 -47 13l70 328q7 24 3 41.5t-27 17.5q-48 0 -92 -52l-61 -285q-7 -32 -30.5 -47.5t-53.5 -15.5q-27 0 -47 13l82 384q6 25 -10 25q-6 0 -20 -12q-11 7 -12.5 24.5t12.5 30.5q60 48 112 48q61 0 48 -55z" />
    <glyph glyph-name="n" unicode="n" horiz-adv-x="479" 
d="M14 402q-11 7 -12.5 24.5t12.5 30.5q60 48 112 48q61 0 48 -55l-10 -45q32 45 76.5 72.5t87.5 27.5t63.5 -36.5t4.5 -110.5l-49 -230q-8 -41 27 -41q26 0 55.5 15t49.5 35q17 -8 17 -24q0 -11 -9 -22q-88 -99 -181 -99q-108 0 -78 142l42 199q13 59 -27 59
q-20 0 -46 -15.5t-43 -36.5l-61 -285q-7 -32 -30.5 -47.5t-53.5 -15.5q-27 0 -47 13l82 384q6 25 -10 25q-6 0 -20 -12z" />
    <glyph glyph-name="o" unicode="o" horiz-adv-x="453" 
d="M244 509q78 0 116.5 -50t38.5 -129q0 -76 -32.5 -153t-94.5 -131t-137 -54q-73 0 -110 50.5t-37 126.5q0 77 31.5 154.5t92 131.5t132.5 54zM266 433q-64 0 -107 -75.5t-43 -156.5q0 -62 18 -92t47 -30q56 0 99.5 87t43.5 172q0 95 -58 95z" />
    <glyph glyph-name="p" unicode="p" horiz-adv-x="476" 
d="M-114 -364l158 753q6 25 -10 25q-6 0 -20 -12q-11 7 -12.5 24.5t12.5 30.5q60 48 112 48q61 0 48 -55l-5 -24q64 79 136 79q63 0 95 -46t32 -119q0 -45 -12.5 -93.5t-37 -94t-57.5 -81.5t-78.5 -57.5t-94.5 -21.5q-38 0 -69 26l-69 -332q-14 -63 -81 -63q-27 0 -47 13z
M250 405q-47 0 -99 -64l-55 -261q20 -11 50 -11q71 0 117 76t46 159q0 50 -16 75.5t-43 25.5z" />
    <glyph glyph-name="q" unicode="q" horiz-adv-x="492" 
d="M456 492l-171 -806q-14 -63 -81 -63q-28 0 -47 13l92 436q-65 -80 -135 -80q-37 0 -63 16.5t-38.5 44t-18 53.5t-5.5 54q0 134 75 241.5t177 107.5q64 0 102 -33q22 29 66 29q27 0 47 -13zM167 95q24 0 52 17.5t48 44.5l57 269q-23 8 -47 8q-43 0 -76.5 -26t-51.5 -67
t-27 -85.5t-9 -88.5q0 -36 15 -54t39 -18z" />
    <glyph glyph-name="r" unicode="r" horiz-adv-x="371" 
d="M174 450l-11 -54q54 109 129 109q34 0 53.5 -23t19.5 -56q0 -37 -21.5 -65.5t-58.5 -28.5q-17 0 -29 4q11 9 11 31q0 25 -31 25q-70 0 -131 -276l-12 -61q-7 -32 -30.5 -47.5t-53.5 -15.5q-27 0 -47 13l82 384q5 25 -10 25q-6 0 -20 -12q-11 7 -12.5 24.5t12.5 30.5
q60 48 112 48q60 0 48 -55z" />
    <glyph glyph-name="s" unicode="s" horiz-adv-x="384" 
d="M94 -8q-76 0 -113 39t-28 93q6 33 28 55t57 22q25 0 40 -14q-21 -24 -21 -63q0 -32 18.5 -49t44.5 -17q30 0 54.5 22.5t24.5 57.5q0 21 -17 37t-41.5 29.5t-48.5 30.5t-41 47.5t-17 72.5q0 65 44.5 109.5t126.5 44.5q126 0 126 -97q0 -40 -20.5 -62t-49.5 -20
q-22 2 -40 14q17 20 17 54q0 26 -13 40t-32 14q-22 0 -40 -21.5t-18 -59.5q0 -29 17 -49.5t41 -34t48 -27.5t41 -39t17 -60q0 -77 -50 -123t-155 -46z" />
    <glyph glyph-name="t" unicode="t" horiz-adv-x="251" 
d="M219 442h-44l-59 -281q-16 -74 30 -74q26 0 55.5 15t49.5 35q17 -8 17 -24q0 -11 -9 -22q-37 -42 -89.5 -70.5t-100.5 -28.5q-109 0 -78 148l64 302h-50q-4 25 7.5 41.5t34.5 16.5h20l18 82q7 32 30.5 47.5t53.5 15.5q27 0 47 -13l-28 -132h73q4 -25 -7.5 -41.5
t-34.5 -16.5z" />
    <glyph glyph-name="u" unicode="u" horiz-adv-x="495" 
d="M-3 184l47 205q6 25 -10 25q-6 0 -20 -12q-11 7 -12.5 24.5t12.5 30.5q60 48 112 48q61 0 48 -55l-61 -284q-13 -59 34 -59q48 0 92 52l60 283q7 32 30.5 47.5t53.5 15.5q27 0 47 -13l-70 -331q-16 -74 30 -74q26 0 55.5 15t49.5 35q17 -8 17 -24q0 -11 -9 -22
q-37 -42 -85.5 -70.5t-87.5 -28.5q-43 0 -69.5 26t-23.5 87q-70 -113 -146 -113q-39 0 -63.5 19t-32 49.5t-6.5 61t8 62.5z" />
    <glyph glyph-name="v" unicode="v" horiz-adv-x="420" 
d="M45 399q4 15 -11 15q-6 0 -20 -12q-11 7 -12.5 24.5t12.5 30.5q60 48 112 48q61 0 48 -55q-52 -245 4 -354q57 45 91.5 116.5t34.5 142.5q0 53 -16 92t-46 53q1 37 21 57.5t46 19.5q32 -1 56.5 -30.5t24.5 -80.5q0 -109 -45.5 -222t-109 -182.5t-117.5 -69.5
q-49 0 -73 78.5t-21.5 172.5t21.5 156z" />
    <glyph glyph-name="w" unicode="w" horiz-adv-x="669" 
d="M301 442q6 32 30 47.5t54 15.5q29 0 47 -13q-35 -162 -35 -246q0 -86 30 -150q57 45 91.5 116.5t34.5 142.5q0 53 -16 92t-46 53q1 37 21 57.5t46 19.5q32 -1 56.5 -30.5t24.5 -80.5q0 -109 -45.5 -222t-109 -182.5t-117.5 -69.5q-65 0 -77 193q-40 -90 -86 -141.5
t-86 -51.5q-47 0 -70.5 69.5t-23.5 167.5q0 104 21 170q2 7 -1.5 11t-9.5 4q-10 0 -19 -11q-15 14 -15 31q0 18 43.5 44.5t82.5 26.5q60 0 48 -55q-24 -111 -24 -203q0 -96 28 -151q43 42 69.5 121t53.5 225z" />
    <glyph glyph-name="x" unicode="x" horiz-adv-x="480" 
d="M315 -8q-48 0 -76 34t-42 122q-108 -156 -176 -156q-32 0 -51.5 29.5t-19.5 82.5q0 62 70 62q21 0 41 -14q-17 -38 -17 -79q36 20 68.5 52.5t75.5 101.5l-21 169q-2 19 -15 28.5t-35.5 4.5t-47.5 -27q-11 11 -12 26t12 29q60 52 107 52q51 0 75.5 -30t32.5 -97l9 -71
q77 89 77 142q0 19 -13 33.5t-41 13.5q1 37 20.5 57t46.5 20q40 0 65.5 -25t15.5 -86q-9 -49 -47 -97t-117 -116l9 -71q12 -95 66 -95q26 0 55.5 15t49.5 35q17 -8 17 -24q0 -11 -9 -22q-37 -42 -85.5 -70.5t-87.5 -28.5z" />
    <glyph glyph-name="y" unicode="y" horiz-adv-x="459" 
d="M-3 184l47 205q6 25 -10 25q-6 0 -20 -12q-11 7 -12.5 24.5t12.5 30.5q60 48 112 48q61 0 48 -55l-62 -288q-12 -55 34 -55q39 0 77 36l65 299q7 32 30.5 47.5t53.5 15.5q28 0 47 -13l-85 -396q-6 -28 -9 -41q97 48 143 87q12 -10 12.5 -24t-11.5 -26q-50 -44 -157 -94
q-16 -63 -32 -112t-41.5 -102.5t-56 -88.5t-74 -57.5t-94.5 -22.5q-47 0 -84 32.5t-37 90.5q0 27 9 51t21 43t38 39.5t44.5 33.5t58 32.5t61.5 30t70 31.5q3 11 10 36.5t11 39.5q-65 -82 -134 -82q-47 0 -70.5 29t-23 71.5t8.5 90.5zM15 -296q50 0 85 52t75 177
q-104 -50 -152.5 -90t-48.5 -92q0 -23 14 -35t27 -12z" />
    <glyph glyph-name="z" unicode="z" horiz-adv-x="393" 
d="M311 497q37 -18 65 -68q-61 -63 -122.5 -156t-104.5 -182q85 -24 119 -24q32 0 66.5 20.5t58.5 49.5q17 -8 17 -24q0 -11 -9 -22q-93 -99 -183 -99q-16 0 -34.5 5t-49 17.5t-43.5 16.5q-23 -39 -54 -39q-42 0 -58.5 29t0.5 66q24 11 49 16q72 145 210 311q-21 -4 -45 -4
t-51 2t-39 2q-49 0 -64 -21q-13 20 -13 44q0 32 21 55t56 23q31 0 76 -17.5t68 -17.5q33 0 64 17z" />
    <glyph glyph-name="braceleft" unicode="{" 
d="M237 200q-8 -53 -46.5 -139.5t-44.5 -133.5q-10 -73 70 -73q39 0 99 19q12 -41 -30.5 -63.5t-124.5 -22.5q-141 0 -120 144q5 41 50.5 135.5t49.5 124.5q6 45 -18 53q-21 -18 -51 -18q-26 0 -38 14.5t-9 33.5q3 20 22.5 36.5t57.5 16.5q24 0 47 -10q32 24 41 88
q6 45 7 113t3 80q6 44 21.5 80t53 64t90.5 28q51 0 78.5 -8.5t31 -23t-6.5 -33.5q-47 13 -76 13q-37 0 -56 -25.5t-25 -89.5l-12 -138q-13 -138 -105 -177q48 -32 41 -88z" />
    <glyph glyph-name="bar" unicode="|" horiz-adv-x="309" 
d="M284 680l-179 -840q-27 -2 -44.5 15t-11.5 45l179 840q67 -4 56 -60z" />
    <glyph glyph-name="braceright" unicode="}" 
d="M148 357q8 53 46.5 139.5t44.5 133.5q10 73 -70 73q-39 0 -99 -19q-12 41 30.5 63.5t124.5 22.5q141 0 120 -144q-5 -41 -50.5 -135.5t-49.5 -124.5q-6 -45 17 -54q20 19 52 19q26 0 38 -14.5t9 -33.5q-3 -20 -22.5 -36.5t-57.5 -16.5q-26 0 -48 9q-33 -26 -40 -87
q-6 -45 -7 -113t-3 -80q-6 -44 -21.5 -80t-53 -64t-90.5 -28q-51 0 -78.5 8.5t-31 23t6.5 33.5q47 -13 76 -13q37 0 56 25.5t25 89.5l12 138q11 137 105 177q-49 31 -41 88z" />
    <glyph glyph-name="asciitilde" unicode="~" horiz-adv-x="352" 
d="M100 256q-42 0 -58 -36q-26 12 -26 45q0 28 21.5 54t58.5 26q27 0 69.5 -13t70.5 -12t48 28q30 -18 30 -57q0 -32 -22.5 -56t-52.5 -24q-23 -1 -70 22t-69 23z" />
    <glyph glyph-name="dieresis" unicode="&#xa8;" horiz-adv-x="405" 
d="M53 642q0 26 18 44t44 18t44 -18t18 -44t-18 -44t-44 -18t-44 18t-18 44zM250 642q0 26 18 44t44 18t44 -18t18 -44t-18 -44t-44 -18t-44 18t-18 44z" />
    <glyph glyph-name="guillemotleft" unicode="&#xab;" horiz-adv-x="464" 
d="M318 456l-196 -189l144 -189q-24 -23 -53.5 -27t-49.5 19l-138 197l192 197q27 23 55.5 19t45.5 -27zM454 412l-181 -145l141 -145q-19 -21 -46 -27t-46 13l-136 159l180 159q24 19 49.5 13t38.5 -27z" />
    <glyph glyph-name="guillemotright" unicode="&#xbb;" horiz-adv-x="451" 
d="M247 70q-27 -23 -55.5 -19t-45.5 27l195 189l-143 189q24 23 53.5 27t49.5 -19l138 -197zM10 122l180 145l-140 145q19 21 46 27t46 -13l136 -159l-180 -159q-24 -19 -49.5 -13t-38.5 27z" />
    <glyph glyph-name="endash" unicode="&#x2013;" horiz-adv-x="395" 
d="M71 255q-33 0 -50 -20q-13 17 -13 36q0 28 24.5 48t64.5 20q29 0 74.5 -7.5t79 -7.5t62.5 15q26 -32 1 -72.5t-76 -40.5q-29 0 -83.5 14.5t-83.5 14.5z" />
    <glyph glyph-name="emdash" unicode="&#x2014;" horiz-adv-x="603" 
d="M71 252q-33 0 -50 -20q-28 34 -1.5 69t87.5 35q57 0 145 -7.5t151.5 -7.5t119.5 15q26 -38 1 -85.5t-76 -47.5q-60 0 -182.5 24.5t-194.5 24.5z" />
    <glyph glyph-name="quoteleft" unicode="&#x2018;" horiz-adv-x="216" 
d="M162 760q9 0 15 -7t6 -19q-38 -43 -38 -83q0 -16 11.5 -41t11.5 -43q0 -27 -20 -47t-49 -20q-30 0 -50.5 21t-20.5 50q0 53 43.5 111t90.5 78z" />
    <glyph glyph-name="quoteright" unicode="&#x2019;" horiz-adv-x="216" 
d="M49 500q-9 0 -15 7t-6 19q38 43 38 83q0 16 -11.5 41t-11.5 43q0 27 20 47t49 20q30 0 50.5 -21t20.5 -50q0 -53 -43.5 -111t-90.5 -78z" />
    <glyph glyph-name="quotesinglbase" unicode="&#x201a;" horiz-adv-x="216" 
d="M19 -144q-9 -3 -15.5 5t-1.5 21q34 30 47.5 65.5t9.5 61t-17 42.5q4 28 24 47t49 19q30 0 47.5 -19t17.5 -48q0 -56 -46 -113t-115 -81z" />
    <glyph glyph-name="quotedblleft" unicode="&#x201c;" 
d="M162 760q9 0 15 -7t6 -19q-38 -43 -38 -83q0 -16 11.5 -41t11.5 -43q0 -27 -20 -47t-49 -20q-30 0 -50.5 21t-20.5 50q0 53 43.5 111t90.5 78zM340 760q9 0 15 -7t6 -19q-38 -43 -38 -83q0 -16 11.5 -41t11.5 -43q0 -27 -20 -47t-49 -20q-30 0 -50.5 21t-20.5 50
q0 53 43.5 111t90.5 78z" />
    <glyph glyph-name="quotedblright" unicode="&#x201d;" 
d="M49 500q-9 0 -15 7t-6 19q38 43 38 83q0 16 -11.5 41t-11.5 43q0 27 20 47t49 20q30 0 50.5 -21t20.5 -50q0 -53 -43.5 -111t-90.5 -78zM227 500q-9 0 -15 7t-6 19q38 43 38 83q0 16 -11.5 41t-11.5 43q0 27 20 47t49 20q30 0 50.5 -21t20.5 -50q0 -53 -43.5 -111
t-90.5 -78z" />
    <glyph glyph-name="quotedblbase" unicode="&#x201e;" 
d="M49 -144q-9 0 -15 7t-6 19q38 43 38 83q0 16 -11.5 41t-11.5 43q0 27 20 47t49 20q30 0 50.5 -21t20.5 -50q0 -53 -43.5 -111t-90.5 -78zM227 -144q-9 0 -15 7t-6 19q38 43 38 83q0 16 -11.5 41t-11.5 43q0 27 20 47t49 20q30 0 50.5 -21t20.5 -50q0 -53 -43.5 -111
t-90.5 -78z" />
    <glyph glyph-name="bullet" unicode="&#x2022;" horiz-adv-x="263" 
d="M7 283q2 44 34 74.5t76 30.5t73 -31t27 -74q-3 -44 -35 -74.5t-76 -30.5t-73 30.5t-26 74.5z" />
    <glyph glyph-name="Euro" unicode="&#x20ac;" horiz-adv-x="558" 
d="M271 393h-99q-4 -37 -5 -53h117q8 -13 8 -30q0 -23 -16.5 -40t-48.5 -17h-59q8 -77 42.5 -122.5t96.5 -45.5q94 0 134 81q30 0 30 -27q0 -53 -70 -100t-150 -47q-104 0 -161 73.5t-64 187.5h-76q-9 9 -9 26q0 23 17.5 42t48.5 19h20q4 33 7 53h-40q-9 9 -9 26
q0 23 17.5 42t48.5 19h4q40 128 122.5 209t180.5 81q68 0 103.5 -38t35.5 -89q0 -41 -22.5 -71.5t-58.5 -30.5q-16 0 -33.5 10.5t-25.5 29.5q29 12 41 41.5t-2.5 54.5t-51.5 25q-45 0 -88 -62.5t-68 -159.5h140q8 -13 8 -30q0 -23 -16.5 -40t-48.5 -17z" />
    <glyph glyph-name="ff" horiz-adv-x="250" 
d="M339 500v-58h-167l-95 -442q-46 -214 -97.5 -299.5t-152.5 -85.5q-49 0 -79.5 28.5t-30.5 88.5q0 27 33 27q12 -55 69 -55q48 0 76.5 65t64.5 231l95 442h-50q-4 25 7.5 41.5t34.5 16.5h20l8 36q21 95 78.5 151t129.5 56q141 0 85 -207h-43q29 136 -47 136
q-57 0 -87 -142l-7 -30h155z" />
    <glyph glyph-name="a.end" horiz-adv-x="537" 
d="M459 492l-70 -331q-7 -38 -0.5 -55.5t22.5 -17.5q36 0 56 48q30 0 30 -27q0 -49 -45.5 -83t-92.5 -34q-41 0 -67.5 23.5t-25.5 77.5q-72 -101 -152 -101q-37 0 -63 16.5t-38.5 44t-18 53.5t-5.5 54q0 134 75 241.5t177 107.5q66 0 103 -33q25 29 68 29q28 0 47 -13z
M167 95q24 0 52.5 17.5t48.5 45.5l56 268q-23 8 -47 8q-43 0 -76.5 -26t-51.5 -67t-27 -85.5t-9 -88.5q0 -36 15 -54t39 -18z" />
    <glyph glyph-name="c.end" horiz-adv-x="404" 
d="M-11 171q0 78 31.5 155.5t91.5 130t132 52.5q121 0 121 -97q0 -40 -20 -61t-50 -21q-25 0 -40 14q16 35 16 65q0 29 -37 29q-44 0 -82.5 -74t-38.5 -177q0 -54 25 -81t65 -27q66 0 93 57q30 0 30 -27q0 -42 -57.5 -79.5t-122.5 -37.5q-157 0 -157 179z" />
    <glyph glyph-name="d.end" horiz-adv-x="535" 
d="M357 -8q-92 0 -91 101q-72 -101 -152 -101q-37 0 -63 16.5t-38.5 44t-18 53.5t-5.5 54q0 134 75 241.5t177 107.5q61 0 96 -28l25 117q4 20 -6.5 24.5t-22.5 -10.5q-15 14 -15 31q0 18 43.5 44.5t82.5 26.5q60 0 48 -55l-105 -498q-7 -38 -0.5 -55.5t22.5 -17.5
q36 0 56 48q30 0 30 -27q0 -49 -45.5 -83t-92.5 -34zM268 158v-1l57 268q-25 9 -48 9q-43 0 -76.5 -26t-51.5 -67t-27 -85.5t-9 -88.5q0 -36 15 -54t39 -18t52.5 17.5t48.5 45.5z" />
    <glyph glyph-name="e.end" horiz-adv-x="393" 
d="M145 -8q-157 0 -157 179q0 51 16.5 108t46.5 109.5t79.5 86.5t108.5 34q62 0 88 -28t26 -68q0 -68 -50 -125.5t-188 -134.5q15 -74 87 -74q66 0 93 57q30 0 30 -27q0 -42 -57.5 -79.5t-122.5 -37.5zM246 431q-35 0 -62 -26t-41.5 -66t-22 -76t-8.5 -67q163 103 163 196
q0 17 -8 28t-21 11z" />
    <glyph glyph-name="g.end" horiz-adv-x="499" 
d="M451 -32q-44 10 -105 3q-15 -59 -31 -106t-40.5 -95.5t-53 -81t-69 -53t-87.5 -20.5q-49 0 -83.5 32t-34.5 91q0 44 26 86.5t69.5 76.5t92.5 60t103 46q14 50 22 78q-69 -93 -146 -93q-37 0 -63 16.5t-38.5 44t-18 53.5t-5.5 54q0 134 75 241.5t177 107.5q66 0 103 -33
q25 29 68 29q28 0 47 -13l-84 -396q-2 -9 -5.5 -27t-5.5 -26q21 4 41 4q30 0 43 -24.5t3 -54.5zM268 158l56 268q-23 8 -47 8q-43 0 -76.5 -26t-51.5 -67t-27 -85.5t-9 -88.5q0 -36 15 -54t39 -18t52.5 17.5t48.5 45.5zM56 -296q50 0 86 53t75 180q-86 -35 -144 -86
t-58 -100q0 -23 14 -35t27 -12z" />
    <glyph glyph-name="h.end" horiz-adv-x="499" 
d="M243 392q-48 0 -93 -53l-63 -284q-7 -32 -30.5 -47.5t-53.5 -15.5q-27 0 -42 10l127 596q4 20 -6.5 24.5t-22.5 -10.5q-15 14 -15 31q0 18 43.5 44.5t82.5 26.5q60 0 48 -55l-52 -245q64 91 133 91q48 0 79.5 -34t14.5 -113l-42 -197q-7 -38 -0.5 -55.5t22.5 -17.5
q36 0 56 48q30 0 30 -27q0 -49 -45.5 -83t-92.5 -34q-21 0 -39.5 5.5t-36.5 21.5t-22.5 43.5t2.5 71.5l42 199q7 24 3 41.5t-27 17.5z" />
    <glyph glyph-name="i.end" horiz-adv-x="260" 
d="M-15 111l59 278q5 25 -10 25q-6 0 -20 -12q-11 7 -12.5 24.5t12.5 30.5q60 48 112 48q60 0 48 -55l-62 -289q-7 -38 -0.5 -55.5t22.5 -17.5q36 0 56 48q30 0 30 -27q0 -49 -45.5 -83t-92.5 -34q-46 0 -78 28.5t-19 90.5zM77 634q3 29 25 49.5t51 20.5t48 -20.5t16 -49.5
q-5 -30 -27 -50t-51 -20q-30 0 -48 20.5t-14 49.5z" />
    <glyph glyph-name="j.end" horiz-adv-x="230" 
d="M-20 89l65 300q5 25 -10 25q-7 0 -20 -12q-11 7 -12.5 24.5t12.5 30.5q60 48 112 48q60 0 48 -55l-76 -354q-4 -17 -12 -53q23 4 42 4q30 0 43 -24.5t3 -54.5q-44 10 -105 3q-15 -59 -31 -106t-40.5 -95.5t-53 -81t-69 -53t-87.5 -20.5q-49 0 -83.5 32t-34.5 91
q0 44 26 86.5t69.5 76.5t92.5 60t103 46q10 40 18 82zM-220 -296q53 0 91 54.5t73 179.5q-87 -34 -146 -86t-59 -101q0 -23 14 -35t27 -12zM79 634q2 29 23 49.5t50 20.5t48.5 -20.5t18.5 -49.5q-2 -29 -23.5 -49.5t-50.5 -20.5t-48.5 20.5t-17.5 49.5z" />
    <glyph glyph-name="k.end" horiz-adv-x="456" 
d="M-38 2l125 596q4 20 -6.5 24.5t-22.5 -10.5q-15 14 -15 31q0 18 43.5 44.5t82.5 26.5q60 0 48 -55l-82 -383l20 5q97 29 97 116q0 47 -14 62q10 21 31 33.5t47 12.5q30 0 43 -17.5t13 -57.5q1 -56 -35.5 -100.5t-89.5 -69.5q8 -33 14 -53.5t18 -52.5t27.5 -49t33.5 -17
q19 0 29.5 11t16.5 37q30 0 30 -27q0 -51 -37.5 -84t-90.5 -33q-23 0 -42 10t-33.5 32t-24 40t-18.5 52t-12 48t-9 46q0 2 -0.5 3.5l-1 3t-0.5 3.5l-23 -6l-36 -169q-7 -32 -30.5 -47.5t-53.5 -15.5q-27 0 -42 10z" />
    <glyph glyph-name="l.end" horiz-adv-x="296" 
d="M-8 140q32 283 90.5 428.5t153.5 145.5q36 0 58 -21.5t22 -59.5q0 -61 -50.5 -177.5t-144.5 -258.5q-1 -6 -2 -18t-2 -18q-8 -73 22 -73q36 0 56 48q30 0 30 -27q0 -49 -45.5 -83t-92.5 -34q-46 0 -75 34t-20 114zM243 648q-24 0 -54 -100.5t-55 -262.5q59 109 92.5 208
t33.5 133q0 22 -17 22z" />
    <glyph glyph-name="m.end" horiz-adv-x="735" 
d="M630 358l-42 -197q-7 -38 -0.5 -55.5t22.5 -17.5q36 0 56 48q30 0 30 -27q0 -49 -45.5 -83t-92.5 -34q-21 0 -39.5 5.5t-36.5 21.5t-22.5 43.5t2.5 71.5l42 199q15 59 -24 59q-44 0 -87 -46l-62 -291q-7 -32 -30.5 -47.5t-53.5 -15.5q-28 0 -47 13l70 328q7 24 3 41.5
t-27 17.5q-48 0 -92 -52l-61 -285q-7 -32 -30.5 -47.5t-53.5 -15.5q-27 0 -47 13l82 384q6 25 -10 25q-6 0 -20 -12q-11 7 -12.5 24.5t12.5 30.5q60 48 112 48q61 0 48 -55l-10 -45q69 100 148 100q35 0 60.5 -27t23.5 -76q72 103 150 103q44 0 72.5 -34.5t11.5 -112.5z" />
    <glyph glyph-name="n.end" horiz-adv-x="502" 
d="M396 358l-42 -197q-7 -38 -0.5 -55.5t22.5 -17.5q36 0 56 48q30 0 30 -27q0 -49 -45.5 -83t-92.5 -34q-21 0 -39.5 5.5t-36.5 21.5t-22.5 43.5t2.5 71.5l42 199q13 59 -27 59q-20 0 -46 -15.5t-43 -36.5l-61 -285q-7 -32 -30.5 -47.5t-53.5 -15.5q-27 0 -47 13l82 384
q6 25 -10 25q-6 0 -20 -12q-11 7 -12.5 24.5t12.5 30.5q60 48 112 48q61 0 48 -55l-10 -45q32 45 76.5 72.5t87.5 27.5t63.5 -36.5t4.5 -110.5z" />
    <glyph glyph-name="o.end" horiz-adv-x="487" 
d="M501 457q13 -13 12 -29t-12 -26q-3 -3 -42.5 -41.5t-63.5 -53.5q1 -4 1 -11q0 -113 -84.5 -208.5t-176.5 -95.5q-73 0 -110 50.5t-37 126.5q0 77 31.5 154.5t92 131.5t132.5 54q81 0 120 -59q-1 -17 -11.5 -25t-22.5 -3q-30 11 -64 11q-64 0 -107 -75.5t-43 -156.5
q0 -62 18 -92t47 -30q40 0 77.5 49.5t37.5 114.5q0 18 -5 41q-30 2 -46 12q-17 41 -0.5 73t58.5 32q54 0 79 -46q23 14 64 52.5t55 49.5z" />
    <glyph glyph-name="t.end" horiz-adv-x="264" 
d="M219 442h-44l-59 -281q-7 -38 -0.5 -55.5t22.5 -17.5q36 0 56 48q30 0 30 -27q0 -49 -45.5 -83t-92.5 -34q-21 0 -39.5 6.5t-36 23t-22 45t2.5 73.5l64 302h-50q-4 25 7.5 41.5t34.5 16.5h20l18 82q7 32 30.5 47.5t53.5 15.5q27 0 47 -13l-28 -132h73q4 -25 -7.5 -41.5
t-34.5 -16.5z" />
    <glyph glyph-name="u.end" horiz-adv-x="508" 
d="M-3 184l47 205q6 25 -10 25q-6 0 -20 -12q-11 7 -12.5 24.5t12.5 30.5q60 48 112 48q60 0 48 -55l-61 -284q-13 -59 34 -59q48 0 92 52l60 283q7 32 30.5 47.5t53.5 15.5q27 0 47 -13l-70 -331q-7 -38 -0.5 -55.5t22.5 -17.5q36 0 56 48q30 0 30 -27q0 -49 -45.5 -83
t-92.5 -34q-43 0 -69.5 26t-23.5 87q-70 -113 -146 -113q-39 0 -63.5 19t-32 49.5t-6.5 61t8 62.5z" />
    <glyph glyph-name="x.end" horiz-adv-x="502" 
d="M376 87q16 0 32.5 12t23.5 37q30 0 30 -27q0 -49 -49 -83t-97 -34t-76 34t-42 122q-108 -156 -176 -156q-32 0 -51.5 29.5t-19.5 82.5q0 62 70 62q21 0 41 -14q-17 -38 -17 -79q36 20 68.5 52.5t75.5 101.5l-21 169q-3 30 -34 36.5t-64 -29.5q-15 14 -15 31q0 19 42 47
t80 28q51 0 75.5 -30t32.5 -97l9 -71q77 89 77 142q0 19 -13 33.5t-41 13.5q1 37 20.5 57t46.5 20q40 0 65.5 -25t15.5 -86q-9 -49 -47 -97t-117 -116l9 -71q12 -95 66 -95z" />
    <glyph glyph-name="y.end" horiz-adv-x="459" 
d="M-3 184l47 205q6 25 -10 25q-6 0 -20 -12q-11 7 -12.5 24.5t12.5 30.5q60 48 112 48q60 0 48 -55l-62 -288q-12 -55 34 -55q39 0 77 36l65 299q7 32 30.5 47.5t53.5 15.5q28 0 47 -13l-85 -396q-4 -17 -12 -53q23 4 42 4q30 0 43 -24.5t3 -54.5q-44 10 -105 3
q-15 -59 -31.5 -106t-42 -95.5t-55.5 -81t-71.5 -53t-90.5 -20.5q-45 0 -76.5 32t-31.5 91q0 44 26 86.5t69.5 76.5t92.5 60t103 46q12 44 19 68q-65 -82 -134 -82q-47 0 -70.5 29t-23 71.5t8.5 90.5zM15 -296q50 0 86 53t75 180q-86 -35 -144 -86t-58 -100q0 -23 14 -35
t27 -12z" />
    <glyph glyph-name="o_" horiz-adv-x="464" 
d="M-12 169q0 77 31.5 154.5t92 131.5t132.5 54q81 0 120 -59q-1 -17 -11.5 -25t-22.5 -3q-30 11 -64 11q-64 0 -107 -75.5t-43 -156.5q0 -62 18 -92t47 -30q48 0 87.5 64.5t22.5 140.5q-30 2 -46 12q-17 41 -0.5 73t58.5 32q29 0 52 -15.5t33 -43.5q74 17 171 82
q9 -6 8 -23.5t-13 -26.5q-86 -66 -158 -80q-4 -112 -87.5 -207t-173.5 -95q-73 0 -110 50.5t-37 126.5z" />
    <glyph glyph-name="A.end" horiz-adv-x="683" 
d="M421 134l29 139h-112q-65 -150 -126 -215.5t-128 -65.5q-39 0 -62.5 36t-23.5 101q0 75 85 75q28 0 50 -17q-21 -48 -21 -103v-9q33 12 65 45.5t72 102t88 193t101 300.5h-20q-63 0 -93.5 -29t-30.5 -69q0 -35 20 -58q-21 -10 -43 -10q-37 0 -59 28t-22 67q0 54 42 94.5
t124 40.5q50 0 169 -17t162 -3q14 -8 14 -26q0 -15 -9.5 -27t-25.5 -12h-4l-114 -534q-15 -73 27 -73t66 48q30 0 30 -27q0 -49 -49 -83t-99 -34q-23 0 -42.5 5.5t-38.5 21t-23.5 43.5t2.5 72zM542 707q-36 4 -55 6q-66 -232 -125 -382h100z" />
    <glyph glyph-name="C.end" horiz-adv-x="486" 
d="M251 -8q-111 0 -168.5 83.5t-57.5 208.5q0 126 44.5 238t122 180t166.5 68q68 0 103.5 -38t35.5 -89q0 -41 -22.5 -71.5t-58.5 -30.5q-16 0 -33.5 10.5t-25.5 29.5q29 12 41 41.5t-2.5 54.5t-51.5 25q-43 0 -84.5 -57t-67.5 -151t-26 -193q0 -96 34.5 -156t106.5 -60
q94 0 134 81q30 0 30 -27q0 -53 -70 -100t-150 -47z" />
    <glyph glyph-name="E.end" horiz-adv-x="486" 
d="M365 714q-55 0 -87.5 -43.5t-32.5 -102.5q0 -51 26 -91t76 -52q3 -22 -10 -38q-70 -5 -112 -59t-42 -120q0 -54 30.5 -91t88.5 -37q44 0 81 23.5t58 66.5q30 0 30 -27q0 -54 -73.5 -102.5t-166.5 -48.5t-141 57t-48 141q0 76 47.5 142t127.5 91q-80 52 -80 148
q0 79 58.5 139t156.5 60q82 0 122.5 -35.5t40.5 -88.5q0 -43 -23 -74t-59 -31q-15 0 -33 10.5t-25 29.5q22 6 35.5 28t13.5 46q0 25 -15 42t-44 17z" />
    <glyph glyph-name="M.end" horiz-adv-x="949" 
d="M432 716q-63 0 -93.5 -29t-30.5 -69q0 -35 20 -58q-21 -10 -43 -10q-37 0 -59 28t-22 67q0 54 42 94.5t124 40.5q33 0 110 -16.5t101 -3.5q14 -8 14 -26q0 -15 -9.5 -27t-25.5 -12h-1l-36 -532l232 523q26 64 86 64q35 0 55 -13l-82 -576q-5 -41 0.5 -57t26.5 -16
q42 0 66 48q30 0 30 -27q0 -49 -49 -83t-99 -34q-23 0 -42.5 5.5t-38.5 21t-23.5 43.5t2.5 72l65 428l-218 -511q-23 -59 -85 -59q-29 0 -48 13l36 443l5 117q-67 -213 -127.5 -340.5t-115.5 -180t-116 -52.5q-39 0 -62.5 36t-23.5 101q0 75 85 75q28 0 50 -17
q-21 -48 -21 -103v-9q33 12 65 45.5t72 102t88 193t101 300.5h-5z" />
    <glyph glyph-name="X.end" horiz-adv-x="620" 
d="M507 128q7 -41 33 -41q36 0 60 49q30 0 30 -27q0 -49 -49 -83t-99 -34q-38 0 -65.5 23t-36.5 69l-36 168q-71 -125 -141 -192.5t-127 -67.5q-39 0 -62.5 36t-23.5 101q0 75 85 75q28 0 50 -17q-21 -48 -21 -103v-8q44 21 102 85.5t120 176.5l-80 377q-54 -5 -79.5 -33
t-25.5 -64q0 -35 20 -58q-21 -10 -43 -10q-37 0 -59 28t-22 67q0 54 42 94.5t124 40.5q33 0 110 -16.5t101 -3.5q14 -8 14 -26q0 -15 -9.5 -27t-25.5 -12h-3l51 -247q103 142 87 316q36 26 66 26q32 0 44.5 -18t12.5 -39q0 -102 -52 -183t-146 -162z" />
    <glyph glyph-name="H.end" horiz-adv-x="682" 
d="M410 134l54 254q-69 -24 -156 -26l-65 -306q-14 -64 -86 -64q-35 0 -53 13l161 711h-5q-63 0 -93.5 -29t-30.5 -69q0 -35 20 -58q-21 -10 -43 -10q-37 0 -59 28t-22 67q0 54 42 94.5t124 40.5q33 0 110 -16.5t101 -3.5q14 -8 14 -26q0 -15 -9.5 -27t-25.5 -12h-9
l-57 -265q66 0 152 8l53 248q14 64 86 64q29 0 48 -13l-124 -576q-15 -73 27 -73t66 48q30 0 30 -27q0 -49 -49 -83t-99 -34q-23 0 -42.5 5.5t-38.5 21t-23.5 43.5t2.5 72z" />
    <glyph glyph-name="y.alt" horiz-adv-x="459" 
d="M-3 184l47 205q6 25 -10 25q-6 0 -20 -12q-11 7 -12.5 24.5t12.5 30.5q60 48 112 48q60 0 48 -55l-62 -288q-12 -55 34 -55q39 0 77 36l65 299q7 32 30.5 47.5t53.5 15.5q28 0 47 -13l-85 -396q-19 -88 -34 -143q42 -3 145 -13t144 -10q77 0 118 29q21 -62 -3.5 -105.5
t-77.5 -43.5q-61 0 -187.5 33t-159.5 39q-41 -123 -105 -195t-166 -72q-45 0 -80 35t-35 88q0 67 40 115.5t103.5 72.5t144.5 28q6 20 18 61.5t17 58.5q-66 -81 -134 -81q-47 0 -70.5 29t-23 71.5t8.5 90.5zM15 -296q47 0 80 44.5t67 146.5h-20q-73 0 -120.5 -41.5
t-47.5 -102.5q0 -22 13 -34.5t28 -12.5z" />
    <glyph glyph-name="j.alt" horiz-adv-x="201" 
d="M-17 106l61 283q5 25 -10 25q-6 0 -20 -12q-11 7 -12.5 24.5t12.5 30.5q60 48 112 48q60 0 48 -55l-76 -354q-19 -88 -34 -143q42 -3 145 -13t144 -10q77 0 118 29q21 -62 -3.5 -105.5t-77.5 -43.5q-61 0 -187.5 33t-159.5 39q-87 -267 -271 -267q-45 0 -80 35t-35 88
q0 100 82 155t208 61q19 69 36 152zM-221 -296q49 0 84 45t67 146h-24q-73 0 -120.5 -41.5t-47.5 -102.5q0 -22 13 -34.5t28 -12.5zM79 634q2 29 23 49.5t50 20.5t48.5 -20.5t18.5 -49.5q-2 -29 -23.5 -49.5t-50.5 -20.5t-48.5 20.5t-17.5 49.5z" />
    <glyph glyph-name="g.alt" horiz-adv-x="499" 
d="M459 492l-84 -396q-19 -88 -34 -143q42 -3 145 -13t144 -10q77 0 118 29q21 -62 -3.5 -105.5t-77.5 -43.5q-61 0 -187.5 33t-159.5 39q-41 -123 -105 -195t-166 -72q-45 0 -80 35t-35 88q0 67 40 115.5t103.5 72.5t144.5 28q8 26 38 131q-69 -93 -146 -93q-37 0 -63 16.5
t-38.5 44t-18 53.5t-5.5 54q0 134 75 241.5t177 107.5q64 0 102 -33q25 29 69 29q28 0 47 -13zM268 158l56 268q-23 8 -47 8q-43 0 -76.5 -26t-51.5 -67t-27 -85.5t-9 -88.5q0 -36 15 -54t39 -18t52.5 17.5t48.5 45.5zM56 -296q47 0 80 44.5t67 146.5h-20
q-73 0 -120.5 -41.5t-47.5 -102.5q0 -22 13 -34.5t28 -12.5z" />
    <glyph glyph-name="l.alt" horiz-adv-x="323" 
d="M350 155q-26 -67 -101 -115t-146 -48q-88 0 -107 76q-24 -10 -46.5 1.5t-26.5 37.5q34 7 72 45q36 281 92.5 421.5t149.5 140.5q36 0 58 -21.5t22 -59.5q0 -61 -50.5 -177t-143.5 -258q-4 -23 -5 -37q-5 -37 10.5 -54.5t43.5 -17.5q43 0 91.5 32t62.5 72q14 2 21.5 -10.5
t2.5 -27.5zM244 648q-24 0 -53 -99t-55 -262q59 109 92 207t33 132q0 22 -17 22z" />
    <glyph glyph-name="z.end" horiz-adv-x="399" 
d="M268 67q14 0 28 10.5t20 28.5q30 0 30 -27q0 -39 -35 -63t-93 -24q-16 0 -34.5 5t-49 17.5t-43.5 16.5q-23 -39 -54 -39q-42 0 -58.5 29t0.5 66q24 11 49 16q72 145 210 311q-21 -4 -45 -4t-51 2t-39 2q-49 0 -64 -21q-13 20 -13 44q0 32 21 55t56 23q31 0 76 -17.5
t68 -17.5q33 0 64 17q37 -18 65 -68q-61 -63 -122.5 -156t-104.5 -182q85 -24 119 -24z" />
    <glyph glyph-name="fi.end" horiz-adv-x="511" 
d="M-36 0l95 442h-50q-4 25 7.5 41.5t34.5 16.5h20l8 36q22 105 84.5 156t149.5 51q62 0 104 -29.5t42 -77.5q0 -38 -19 -58t-52 -20q-36 0 -62 20q16 50 19 90q-27 8 -46 8q-39 0 -63.5 -35.5t-40.5 -110.5l-7 -30h187q60 0 48 -55l-60 -284q-7 -38 -0.5 -55.5t22.5 -17.5
q36 0 56 48q30 0 30 -27q0 -49 -45.5 -83t-92.5 -34q-50 0 -81 27.5t-16 91.5l64 306q6 25 -21 25h-103l-95 -442q-46 -214 -97.5 -299.5t-152.5 -85.5q-49 0 -79.5 28.5t-30.5 88.5q0 27 33 27q12 -55 69 -55q48 0 76.5 65t64.5 231z" />
    <glyph glyph-name="fh.end" horiz-adv-x="746" 
d="M219 442h-43l-95 -442q-46 -214 -97.5 -299.5t-152.5 -85.5q-49 0 -79.5 28.5t-30.5 88.5q0 27 33 27q12 -55 69 -55q48 0 76.5 65t64.5 231l95 442h-50q-4 25 7.5 41.5t34.5 16.5h20l8 36q22 102 88 154.5t156 52.5q63 0 102 -42t22 -125l-34 -162q62 91 133 91
q48 0 79.5 -34t14.5 -113l-42 -197q-7 -38 -0.5 -55.5t22.5 -17.5q36 0 56 48q30 0 30 -27q0 -49 -45.5 -83t-92.5 -34q-46 0 -78.5 28.5t-20.5 90.5l45 222q7 24 2.5 41.5t-26.5 17.5q-48 0 -93 -53l-63 -284q-7 -32 -30.5 -47.5t-53.5 -15.5q-27 0 -42 10l124 585
q21 95 -44 95q-36 0 -56.5 -38.5t-36.5 -113.5l-7 -30h73q4 -25 -7.5 -41.5t-34.5 -16.5z" />
    <glyph glyph-name="fk.end" horiz-adv-x="703" 
d="M219 442h-43l-95 -442q-46 -214 -97.5 -299.5t-152.5 -85.5q-49 0 -79.5 28.5t-30.5 88.5q0 27 33 27q12 -55 69 -55q48 0 76.5 65t64.5 231l95 442h-50q-4 25 7.5 41.5t34.5 16.5h20l8 36q22 102 88 154.5t156 52.5q63 0 102.5 -42t21.5 -125l-65 -300l20 5
q97 29 97 116q0 47 -14 62q22 46 78 48q28 1 42 -17.5t14 -59.5q1 -56 -35.5 -100.5t-89.5 -69.5q8 -33 14 -53.5t18 -52.5t27.5 -49t33.5 -17q19 0 29.5 11t16.5 37q30 0 30 -27q0 -51 -37.5 -84t-90.5 -33q-23 0 -42 10t-33.5 32t-24 40t-18.5 52t-12 48t-9 46
q0 2 -0.5 3.5l-1 3t-0.5 3.5l-24 -6l-36 -169q-7 -32 -30.5 -47.5t-53.5 -15.5q-27 0 -42 10l124 585q21 95 -44 95q-36 0 -56.5 -38.5t-36.5 -113.5l-7 -30h73q4 -25 -7.5 -41.5t-34.5 -16.5z" />
    <glyph glyph-name="fl.end" horiz-adv-x="506" 
d="M219 442h-43l-95 -442q-46 -214 -97.5 -299.5t-152.5 -85.5q-49 0 -79.5 28.5t-30.5 88.5q0 27 33 27q12 -55 69 -55q48 0 76.5 65t64.5 231l95 442h-50q-4 25 7.5 41.5t34.5 16.5h20l8 36q22 102 88 154.5t156 52.5q63 0 102.5 -42t21.5 -125l-89 -415
q-7 -38 -0.5 -55.5t22.5 -17.5q36 0 56 48q30 0 30 -27q0 -49 -45.5 -83t-92.5 -34q-46 0 -78 28.5t-19 90.5l101 476q21 95 -44 95q-36 0 -56.5 -38.5t-36.5 -113.5l-7 -30h73q4 -25 -7.5 -41.5t-34.5 -16.5z" />
    <glyph glyph-name="Th.end" horiz-adv-x="937" 
d="M658 111l47 222q7 24 3 41.5t-27 17.5q-48 0 -93 -53l-61 -276q-7 -32 -30.5 -47.5t-53.5 -15.5q-27 0 -42 10l128 610q-12 1 -28 5.5t-26.5 8t-32.5 12t-30 11.5l-128 -601q-14 -64 -86 -64q-35 0 -53 13l153 677h-8q-58 0 -103 -40t-45 -110q0 -29 14 -52
q-64 -17 -95 9t-31 71q0 55 29.5 95t77 60t92.5 28.5t90 8.5q26 0 96 -6t98 -6q77 0 118 29q37 -46 22 -121l-49 -234q62 91 133 91q48 0 79.5 -34t14.5 -113l-42 -197q-7 -38 -0.5 -55.5t22.5 -17.5q36 0 56 48q30 0 30 -27q0 -49 -45.5 -83t-92.5 -34t-80.5 29t-20.5 90z
" />
    <glyph glyph-name="Tk.end" horiz-adv-x="894" 
d="M778 88q19 0 29.5 11t16.5 37q30 0 30 -27q0 -51 -37.5 -84t-90.5 -33q-23 0 -42 10t-33.5 32t-24 40t-18.5 52t-12 48t-9 46q0 2 -0.5 3.5l-1 3t-0.5 3.5l-24 -6l-36 -169q-7 -32 -30.5 -47.5t-53.5 -15.5q-27 0 -42 10l130 618q-12 1 -28 5.5t-26.5 8t-32.5 12
t-30 11.5l-128 -601q-14 -64 -86 -64q-35 0 -53 13l153 677h-8q-58 0 -103 -40t-45 -110q0 -29 14 -52q-64 -17 -95 9t-31 71q0 55 29.5 95t77 60t92.5 28.5t90 8.5q26 0 96 -6t98 -6q77 0 118 29q37 -46 22 -121l-81 -372l21 5q97 29 97 116q0 47 -14 62q22 46 78 48
q28 1 42 -17.5t14 -59.5q1 -56 -35.5 -100.5t-89.5 -69.5q8 -33 14 -53.5t18 -52.5t27.5 -49t33.5 -17z" />
    <glyph glyph-name="ft.end" horiz-adv-x="498" 
d="M-36 0l95 442h-50q-4 25 7.5 41.5t34.5 16.5h20l8 36q22 102 88 154.5t156 52.5q63 0 103.5 -42t23.5 -125l-16 -76h73q4 -25 -7.5 -41.5t-34.5 -16.5h-44l-59 -281q-7 -38 -0.5 -55.5t22.5 -17.5q36 0 56 48q30 0 30 -27q0 -49 -45.5 -83t-92.5 -34q-13 0 -22.5 0.5
t-23 4t-22.5 9.5t-17.5 17t-12.5 26t-3.5 38.5t6.5 52.5l64 302h-125l-95 -442q-46 -214 -97.5 -299.5t-152.5 -85.5q-49 0 -79.5 28.5t-30.5 88.5q0 27 33 27q12 -55 69 -55q48 0 76.5 65t64.5 231zM195 530l-7 -30h125l18 82q22 100 -43 100q-36 0 -56.5 -38.5
t-36.5 -113.5z" />
    <glyph glyph-name="ov" horiz-adv-x="852" 
d="M477 399q4 15 -11 15q-6 0 -20 -12q-24 -28 -58 -57q8 -19 8 -49q-4 -112 -87 -208t-174 -96q-73 0 -110 50.5t-37 126.5q0 77 31.5 154.5t92 131.5t132.5 54q81 0 120 -59q-1 -17 -11.5 -25t-22.5 -3q-30 11 -64 11q-64 0 -107 -75.5t-43 -156.5q0 -62 18 -92t47 -30
q48 0 87.5 64.5t22.5 140.5q-30 2 -46 12q-17 41 -0.5 73t58.5 32q31 0 58 -20q34 25 78 69q3 4 7 7q60 48 112 48q61 0 48 -55q-52 -245 4 -354q57 45 91.5 116.5t34.5 142.5q0 53 -16 92t-46 53q1 37 21 57.5t46 19.5q32 -1 56.5 -30.5t24.5 -80.5q0 -109 -45.5 -222
t-109 -182.5t-117.5 -69.5q-49 0 -73 78.5t-21.5 172.5t21.5 156z" />
    <glyph glyph-name="ow" horiz-adv-x="1101" 
d="M733 442q6 32 30 47.5t54 15.5q29 0 47 -13q-35 -162 -35 -246q0 -86 30 -150q57 45 91.5 116.5t34.5 142.5q0 53 -16 92t-46 53q1 37 21 57.5t46 19.5q32 -1 56.5 -30.5t24.5 -80.5q0 -109 -45.5 -222t-109 -182.5t-117.5 -69.5q-65 0 -77 193q-40 -90 -86 -141.5
t-86 -51.5q-47 0 -70.5 69.5t-23.5 167.5q0 104 21 170q2 7 -1.5 11t-9.5 4q-10 0 -19 -11q-36 -39 -59 -58q8 -19 8 -49q-4 -112 -87 -208t-174 -96q-73 0 -110 50.5t-37 126.5q0 77 31.5 154.5t92 131.5t132.5 54q81 0 120 -59q-1 -17 -11.5 -25t-22.5 -3q-30 11 -64 11
q-64 0 -107 -75.5t-43 -156.5q0 -62 18 -92t47 -30q48 0 87.5 64.5t22.5 140.5q-30 2 -46 12q-17 41 -0.5 73t58.5 32q31 0 58 -20q35 26 81 72q17 19 51.5 35.5t64.5 16.5q60 0 48 -55q-24 -111 -24 -203q0 -96 28 -151q43 42 69.5 121t53.5 225z" />
    <glyph glyph-name="ti.alt" horiz-adv-x="541" 
d="M-9 140l64 302h-50q-4 25 7.5 41.5t34.5 16.5h20l18 82q7 32 30.5 47.5t53.5 15.5q27 0 47 -13l-28 -132h217q60 0 48 -55l-60 -284q-7 -38 -0.5 -55.5t22.5 -17.5q36 0 56 48q30 0 30 -27q0 -49 -45.5 -83t-92.5 -34q-46 0 -78 28.5t-19 90.5l64 306q6 25 -21 25h-134
l-59 -281q-7 -38 -0.5 -55.5t22.5 -17.5q36 0 56 48q30 0 30 -27q0 -49 -45.5 -83t-92.5 -34q-21 0 -39.5 6.5t-36 23t-22 45t2.5 73.5zM357 634q3 29 25 49.5t51 20.5t48 -20.5t16 -49.5q-5 -30 -27 -50t-51 -20q-30 0 -48 20.5t-14 49.5z" />
    <glyph glyph-name="ol.end" horiz-adv-x="745" 
d="M441 140q2 14 5.5 42.5t5.5 43.5q-30 0 -65 8q-25 -97 -100 -169.5t-152 -72.5q-73 0 -110 50.5t-37 126.5q0 77 31.5 154.5t92 131.5t132.5 54q81 0 120 -59q-1 -17 -11.5 -25t-22.5 -3q-30 11 -64 11q-64 0 -107 -75.5t-43 -156.5q0 -62 18 -92t47 -30q45 0 83.5 58.5
t29.5 131.5q-29 15 -49 27q-17 41 -0.5 73t58.5 32q41 0 67.5 -29t25.5 -76q0 -8 -2 -22q37 -8 65 -8q35 223 89 335.5t137 112.5q36 0 58 -21.5t22 -59.5q0 -94 -51 -201t-132 -163q-7 -39 -16 -108q-8 -73 22 -73q36 0 56 48q30 0 30 -27q0 -49 -45.5 -83t-92.5 -34
q-46 0 -75 34t-20 114zM692 648q-46 0 -102 -326q56 53 87.5 140t31.5 164q0 22 -17 22z" />
    <glyph glyph-name="l.end.alt" horiz-adv-x="296" 
d="M87 -8q-76 0 -93 76q-24 -9 -45.5 2t-25.5 37q33 7 70 44q32 278 90.5 420.5t152.5 142.5q36 0 58 -21.5t22 -59.5q0 -61 -50.5 -177.5t-144.5 -258.5q-1 -6 -2 -18t-2 -18q-8 -73 22 -73q36 0 56 48q30 0 30 -27q0 -49 -45.5 -83t-92.5 -34zM243 648q-24 0 -54 -100.5
t-55 -262.5q59 109 92.5 208t33.5 133q0 22 -17 22z" />
    <glyph glyph-name="e.alt" horiz-adv-x="415" 
d="M354 413q0 -68 -50 -125.5t-188 -134.5q14 -74 93 -74q53 0 113.5 32t93.5 76q19 4 26.5 -8t-1.5 -26q-51 -74 -129 -117.5t-153 -43.5q-111 0 -152 87q-8 -4 -12 -5q-30 -8 -51.5 10.5t-16.5 47.5q29 -4 64 11q-2 18 -2 28q0 51 16.5 108t46.5 109.5t79.5 86.5t108.5 34
q62 0 88 -28t26 -68zM247 431q-35 0 -62 -26t-41.5 -66t-22 -76t-8.5 -67q163 103 163 196q0 17 -8 28t-21 11z" />
    <glyph glyph-name="e.end.alt" horiz-adv-x="393" 
d="M145 -8q-107 0 -142 85q-5 -3 -8 -3q-30 -8 -51.5 10.5t-16.5 47.5q28 -4 62 10q0 4 -0.5 14t-0.5 15q0 51 16.5 108t46.5 109.5t79.5 86.5t108.5 34q62 0 88 -28t26 -68q0 -68 -50 -125.5t-188 -134.5q15 -74 87 -74q66 0 93 57q30 0 30 -27q0 -42 -57.5 -79.5
t-122.5 -37.5zM246 431q-35 0 -62 -26t-41.5 -66t-22 -76t-8.5 -67q163 103 163 196q0 17 -8 28t-21 11z" />
    <glyph glyph-name="Fi.end" horiz-adv-x="754" 
d="M136 546q0 -35 20 -58q-21 -10 -42 -10q-37 0 -59.5 27.5t-22.5 65.5q0 47 20 83.5t50 57.5t69 35t72.5 18.5t65.5 4.5q42 0 122 -9.5t143.5 -7.5t126.5 25q30 -76 -4 -128.5t-94 -52.5q-29 0 -62.5 13t-81.5 39t-70 36l-58 -270q10 -1 33.5 -4.5t35 -4t29 1.5t31.5 9
q19 -23 1 -52.5t-56 -29.5q-13 0 -27.5 2.5t-32.5 7.5t-27 7l-63 -296q-14 -64 -86 -64q-35 0 -53 13l159 704q-56 -6 -97.5 -48t-41.5 -115zM470 111l58 278q5 25 -10 25q-6 0 -20 -12q-11 7 -12.5 24.5t12.5 30.5q60 48 112 48q60 0 48 -55l-61 -289q-7 -38 -0.5 -55.5
t22.5 -17.5q36 0 56 48q30 0 30 -27q0 -49 -45.5 -83t-92.5 -34q-46 0 -78 28.5t-19 90.5z" />
    <glyph glyph-name="Fj.alt" horiz-adv-x="685" 
d="M467 106l61 283q4 20 -6.5 24.5t-22.5 -10.5q-15 14 -15 31q0 18 43.5 44.5t82.5 26.5q60 0 48 -55l-76 -354q-19 -88 -34 -143q42 -3 145 -13t144 -10q77 0 118 29q21 -62 -3.5 -105.5t-77.5 -43.5q-61 0 -187.5 33t-159.5 39q-41 -123 -105 -195t-166 -72q-45 0 -80 35
t-35 88q0 100 81.5 155t208.5 61q11 40 36 152zM136 546q0 -35 20 -58q-21 -10 -42 -10q-37 0 -59.5 27.5t-22.5 65.5q0 47 20 83.5t50 57.5t69 35t72.5 18.5t65.5 4.5q42 0 122 -9.5t143.5 -7.5t126.5 25q30 -76 -4 -128.5t-94 -52.5q-29 0 -62.5 13t-81.5 39t-70 36
l-58 -270q10 -1 33.5 -4.5t35 -4t29 1.5t31.5 9q19 -23 1 -52.5t-56 -29.5q-13 0 -27.5 2.5t-32.5 7.5t-27 7l-63 -296q-14 -64 -86 -64q-35 0 -53 13l159 704q-56 -6 -97.5 -48t-41.5 -115zM263 -296q48 0 83 45t67 146h-23q-73 0 -120.5 -41.5t-47.5 -102.5
q0 -22 13 -34.5t28 -12.5z" />
    <glyph glyph-name="Fj.end" horiz-adv-x="724" 
d="M136 546q0 -35 20 -58q-21 -10 -42 -10q-37 0 -59.5 27.5t-22.5 65.5q0 47 20 83.5t50 57.5t69 35t72.5 18.5t65.5 4.5q42 0 122 -9.5t143.5 -7.5t126.5 25q30 -76 -4 -128.5t-94 -52.5q-29 0 -62.5 13t-81.5 39t-70 36l-58 -270q10 -1 33.5 -4.5t35 -4t29 1.5t31.5 9
q19 -23 1 -52.5t-56 -29.5q-13 0 -27.5 2.5t-32.5 7.5t-27 7l-63 -296q-14 -64 -86 -64q-35 0 -53 13l159 704q-56 -6 -97.5 -48t-41.5 -115zM463 89l65 300q5 25 -10 25q-6 0 -20 -12q-11 7 -12.5 24.5t12.5 30.5q60 48 112 48q60 0 48 -55l-76 -354q-4 -17 -12 -53
q23 4 42 4q30 0 43 -24.5t3 -54.5q-44 10 -105 3q-15 -59 -31 -106t-40.5 -95.5t-53 -81t-69 -53t-87.5 -20.5q-49 0 -83.5 32t-34.5 91q0 44 25.5 86.5t69.5 76.5t92.5 60t102.5 46q3 14 10 43t9 39zM263 -296q52 0 90.5 54.5t72.5 179.5q-86 -33 -145 -85.5t-59 -101.5
q0 -23 14 -35t27 -12z" />
    <glyph glyph-name="tt" horiz-adv-x="281" 
d="M86 -8q-21 0 -39.5 6.5t-36 23t-22 45t2.5 73.5l64 302h-50q-4 25 7.5 41.5t34.5 16.5h20l18 82q7 32 30.5 47.5t53.5 15.5q27 0 47 -13l-28 -132h161l-13 -58h-161l-59 -281q-7 -38 -0.5 -55.5t22.5 -17.5q36 0 56 48q30 0 30 -27q0 -49 -45.5 -83t-92.5 -34z" />
    <glyph glyph-name="tj.end" horiz-adv-x="509" 
d="M260 89l71 328q6 25 -21 25h-135l-59 -281q-7 -38 -0.5 -55.5t22.5 -17.5q36 0 56 48q30 0 30 -27q0 -49 -45.5 -83t-92.5 -34q-21 0 -39.5 6.5t-36 23t-22 45t2.5 73.5l64 302h-50q-4 25 7.5 41.5t34.5 16.5h20l18 82q7 32 30.5 47.5t53.5 15.5q27 0 47 -13l-28 -132
h218q60 0 48 -55l-75 -349q-4 -17 -12 -53q23 4 42 4q30 0 43 -24.5t3 -54.5q-44 10 -105 3q-15 -59 -31 -106t-40.5 -95.5t-53 -81t-69 -53t-87.5 -20.5q-49 0 -83.5 32t-34.5 91q0 44 25.5 86.5t69.5 76.5t92.5 60t102.5 46q3 14 10 43t9 39zM60 -296q52 0 90.5 54.5
t72.5 179.5q-86 -33 -145 -85.5t-59 -101.5q0 -23 14 -35t27 -12zM358 634q3 29 25 49.5t51 20.5t48 -20.5t16 -49.5q-5 -30 -27 -50t-51 -20q-30 0 -48 20.5t-14 49.5z" />
    <glyph glyph-name="tm.end" horiz-adv-x="1016" 
d="M910 358l-42 -197q-7 -38 -0.5 -55.5t22.5 -17.5q36 0 56 48q30 0 30 -27q0 -49 -45.5 -83t-92.5 -34q-21 0 -39.5 5.5t-36.5 21.5t-22.5 43.5t2.5 71.5l42 199q7 24 3 41.5t-27 17.5q-44 0 -87 -46l-62 -291q-7 -32 -30.5 -47.5t-53.5 -15.5q-27 0 -47 13l70 328
q7 24 3 41.5t-27 17.5q-48 0 -92 -52l-61 -285q-7 -32 -30.5 -47.5t-53.5 -15.5q-27 0 -47 13l88 412q6 25 -21 25h-134l-59 -281q-7 -38 -0.5 -55.5t22.5 -17.5q36 0 56 48q30 0 30 -27q0 -49 -45.5 -83t-92.5 -34q-21 0 -39.5 6.5t-36 23t-22 45t2.5 73.5l64 302h-50
q-4 25 7.5 41.5t34.5 16.5h20l18 82q7 32 30.5 47.5t53.5 15.5q27 0 47 -13l-28 -132h217q60 0 48 -55l-9 -40q69 100 148 100q35 0 60.5 -27t23.5 -76q72 103 150 103q43 0 72 -34.5t12 -112.5z" />
    <glyph glyph-name="tn.end" horiz-adv-x="782" 
d="M676 358l-42 -197q-7 -38 -0.5 -55.5t22.5 -17.5q36 0 56 48q30 0 30 -27q0 -49 -45.5 -83t-92.5 -34q-21 0 -39.5 5.5t-36.5 21.5t-22.5 43.5t2.5 71.5l42 199q13 59 -27 59q-20 0 -46 -15.5t-43 -36.5l-61 -285q-7 -32 -30.5 -47.5t-53.5 -15.5q-27 0 -47 13l88 412
q6 25 -21 25h-134l-59 -281q-7 -38 -0.5 -55.5t22.5 -17.5q36 0 56 48q30 0 30 -27q0 -49 -45.5 -83t-92.5 -34q-21 0 -39.5 6.5t-36 23t-22 45t2.5 73.5l64 302h-50q-4 25 7.5 41.5t34.5 16.5h20l18 82q7 32 30.5 47.5t53.5 15.5q27 0 47 -13l-28 -132h217q61 0 48 -55
l-9 -40q32 45 76.5 72.5t87.5 27.5t63.5 -36.5t4.5 -110.5z" />
    <glyph glyph-name="tu.end" horiz-adv-x="788" 
d="M-9 140l64 302h-50q-4 25 7.5 41.5t34.5 16.5h20l18 82q7 32 30.5 47.5t53.5 15.5q27 0 47 -13l-28 -132h217q61 0 48 -55l-60 -279q-13 -59 34 -59q48 0 92 52l60 283q7 32 30.5 47.5t53.5 15.5q27 0 47 -13l-70 -331q-7 -38 -0.5 -55.5t22.5 -17.5q36 0 56 48
q30 0 30 -27q0 -49 -45.5 -83t-92.5 -34q-43 0 -69.5 26t-23.5 87q-70 -113 -146 -113q-39 0 -63.5 19t-32 49.5t-6.5 61t8 62.5l53 233q6 25 -21 25h-134l-59 -281q-7 -38 -0.5 -55.5t22.5 -17.5q36 0 56 48q30 0 30 -27q0 -49 -45.5 -83t-92.5 -34q-21 0 -39.5 6.5t-36 23
t-22 45t2.5 73.5z" />
    <glyph glyph-name="Ti.end" horiz-adv-x="754" 
d="M136 546q0 -35 20 -58q-21 -10 -42 -10q-37 0 -59.5 27.5t-22.5 65.5q0 47 20 83.5t50 57.5t69 35t72.5 18.5t65.5 4.5q42 0 122 -9.5t143.5 -7.5t126.5 25q30 -76 -4 -128.5t-94 -52.5q-20 0 -45.5 8t-43 16.5t-51 26.5t-48.5 25l-131 -617q-14 -64 -86 -64
q-35 0 -53 13l159 704q-2 0 -7 0.5t-7 0.5q-60 0 -107 -42.5t-47 -121.5zM451 111l59 278q5 25 -10 25q-6 0 -20 -12q-11 7 -12.5 24.5t12.5 30.5q60 48 112 48q60 0 48 -55l-62 -289q-7 -38 -0.5 -55.5t22.5 -17.5q36 0 56 48q30 0 30 -27q0 -49 -45.5 -83t-92.5 -34
q-46 0 -78 28.5t-19 90.5z" />
    <glyph glyph-name="Tj.alt" horiz-adv-x="667" 
d="M449 106l61 283q4 20 -6.5 24.5t-22.5 -10.5q-15 14 -15 31q0 18 43.5 44.5t82.5 26.5q60 0 48 -55l-76 -354q-19 -88 -34 -143q42 -3 145 -13t144 -10q77 0 118 29q21 -62 -3.5 -105.5t-77.5 -43.5q-61 0 -187.5 33t-159.5 39q-41 -123 -105 -195t-166 -72q-45 0 -80 35
t-35 88q0 100 81.5 155t208.5 61q11 40 36 152zM136 546q0 -35 20 -58q-21 -10 -42 -10q-37 0 -59.5 27.5t-22.5 65.5q0 47 20 83.5t50 57.5t69 35t72.5 18.5t65.5 4.5q42 0 122 -9.5t143.5 -7.5t126.5 25q30 -76 -4 -128.5t-94 -52.5q-20 0 -45.5 8t-43 16.5t-51 26.5
t-48.5 25l-131 -617q-14 -64 -86 -64q-35 0 -53 13l159 704q-2 0 -7 0.5t-7 0.5q-60 0 -107 -42.5t-47 -121.5zM245 -296q48 0 83 45t67 146h-23q-73 0 -120.5 -41.5t-47.5 -102.5q0 -22 13 -34.5t28 -12.5z" />
    <glyph glyph-name="Tj.end" horiz-adv-x="724" 
d="M445 89l65 300q5 25 -10 25q-6 0 -20 -12q-11 7 -12.5 24.5t12.5 30.5q60 48 112 48q60 0 48 -55l-76 -354q-4 -17 -12 -53q23 4 42 4q30 0 43 -24.5t3 -54.5q-44 10 -105 3q-15 -59 -31 -106t-40.5 -95.5t-53 -81t-69 -53t-87.5 -20.5q-49 0 -83.5 32t-34.5 91
q0 44 25.5 86.5t69.5 76.5t92.5 60t102.5 46q3 14 10 43t9 39zM136 546q0 -35 20 -58q-21 -10 -42 -10q-37 0 -59.5 27.5t-22.5 65.5q0 47 20 83.5t50 57.5t69 35t72.5 18.5t65.5 4.5q42 0 122 -9.5t143.5 -7.5t126.5 25q30 -76 -4 -128.5t-94 -52.5q-20 0 -45.5 8t-43 16.5
t-51 26.5t-48.5 25l-131 -617q-14 -64 -86 -64q-35 0 -53 13l159 704q-2 0 -7 0.5t-7 0.5q-60 0 -107 -42.5t-47 -121.5zM245 -296q52 0 90.5 54.5t72.5 179.5q-86 -33 -145 -85.5t-59 -101.5q0 -23 14 -35t27 -12z" />
    <glyph glyph-name="fm.end" horiz-adv-x="993" 
d="M-181 -296q48 0 76.5 65t64.5 231l95 442h-50q-4 25 7.5 41.5t34.5 16.5h20l8 36q21 95 78.5 151t129.5 56q126 0 126 -97q0 -40 -20.5 -62t-49.5 -20q-22 2 -40 14q16 35 16 65q0 29 -37 29q-57 0 -87 -142l-7 -30h221q60 0 48 -55l-9 -40q69 100 148 100q35 0 60.5 -27
t23.5 -76q72 103 150 103q43 0 72 -34.5t12 -112.5l-42 -197q-7 -38 -0.5 -55.5t22.5 -17.5q36 0 56 48q30 0 30 -27q0 -49 -45.5 -83t-92.5 -34q-21 0 -39.5 5.5t-36.5 21.5t-22.5 43.5t2.5 71.5l42 199q7 24 3 41.5t-27 17.5q-44 0 -87 -46l-62 -291q-7 -32 -30.5 -47.5
t-53.5 -15.5q-27 0 -47 13l70 328q7 24 3 41.5t-27 17.5q-48 0 -92 -52l-61 -285q-7 -32 -30.5 -47.5t-53.5 -15.5q-27 0 -47 13l88 412q6 25 -21 25h-137l-95 -442q-46 -214 -97.5 -299.5t-152.5 -85.5q-49 0 -79.5 28.5t-30.5 88.5q0 27 33 27q12 -55 69 -55z" />
    <glyph glyph-name="fn.end" horiz-adv-x="759" 
d="M-181 -296q48 0 76.5 65t64.5 231l95 442h-50q-4 25 7.5 41.5t34.5 16.5h20l8 36q21 95 78.5 151t129.5 56q126 0 126 -97q0 -40 -20.5 -62t-49.5 -20q-22 2 -40 14q16 35 16 65q0 29 -37 29q-57 0 -87 -142l-7 -30h221q61 0 48 -55l-9 -40q32 45 76.5 72.5t87.5 27.5
t63.5 -36.5t4.5 -110.5l-42 -197q-7 -38 -0.5 -55.5t22.5 -17.5q36 0 56 48q30 0 30 -27q0 -49 -45.5 -83t-92.5 -34q-21 0 -39.5 5.5t-36.5 21.5t-22.5 43.5t2.5 71.5l42 199q13 59 -27 59q-20 0 -46 -15.5t-43 -36.5l-61 -285q-7 -32 -30.5 -47.5t-53.5 -15.5
q-27 0 -47 13l88 412q6 25 -21 25h-137l-95 -442q-46 -214 -97.5 -299.5t-152.5 -85.5q-49 0 -79.5 28.5t-30.5 88.5q0 27 33 27q12 -55 69 -55z" />
    <glyph glyph-name="fu.end" horiz-adv-x="775" 
d="M-181 -296q48 0 76.5 65t64.5 231l95 442h-50q-4 25 7.5 41.5t34.5 16.5h20l8 36q21 95 78.5 151t129.5 56q126 0 126 -97q0 -40 -20.5 -62t-49.5 -20q-22 2 -40 14q16 35 16 65q0 29 -37 29q-57 0 -87 -142l-7 -30h221q61 0 48 -55l-60 -279q-13 -59 34 -59q48 0 92 52
l60 283q7 32 30.5 47.5t53.5 15.5q27 0 47 -13l-70 -331q-7 -38 -0.5 -55.5t22.5 -17.5q36 0 56 48q30 0 30 -27q0 -49 -45.5 -83t-92.5 -34q-43 0 -69.5 26t-23.5 87q-70 -113 -146 -113q-39 0 -63.5 19t-32 49.5t-6.5 61t8 62.5l53 233q6 25 -21 25h-137l-95 -442
q-46 -214 -97.5 -299.5t-152.5 -85.5q-49 0 -79.5 28.5t-30.5 88.5q0 27 33 27q12 -55 69 -55z" />
    </font>
</defs>
</svg>
